<svg width="858" height="140" viewBox="0 0 858 140" fill="none" xmlns="http://www.w3.org/2000/svg">
<g filter="url(#filter0_d_896_63)">
<path d="M45.4902 41.1C44.7569 40.9667 44.2236 40.6667 43.8902 40.2C43.5569 39.6667 43.3902 39.0667 43.3902 38.4C43.3902 38.1333 43.3902 37.9 43.3902 37.7C43.4569 37.4333 43.5236 37.1667 43.5902 36.9C44.1236 34.4333 45.1569 32.2667 46.6902 30.4C48.2236 28.4667 49.9236 26.8667 51.7902 25.6C52.1236 25.3333 52.4236 25.1333 52.6902 25C53.0236 24.8667 53.1902 24.8 53.1902 24.8L52.9902 25.6C52.9236 25.7333 52.8569 25.8667 52.7902 26C52.7902 26.1333 52.5902 26.3667 52.1902 26.7C51.1236 27.6333 50.1569 28.7333 49.2902 30C48.4902 31.2 47.9236 32.5333 47.5902 34C47.4569 34.8 47.6236 35.5667 48.0902 36.3C48.5569 36.9667 49.2236 37.3667 50.0902 37.5L49.6902 38.6C49.3569 38.6667 48.8902 38.8667 48.2902 39.2C47.7569 39.4667 47.3236 39.7 46.9902 39.9C46.7236 40.1 46.4569 40.3667 46.1902 40.7C45.9236 40.9667 45.6902 41.1 45.4902 41.1ZM35.1902 41.1C33.7902 40.9 33.0902 40.0333 33.0902 38.5C33.0902 38.2333 33.0902 37.9667 33.0902 37.7C33.1569 37.4333 33.2236 37.1667 33.2902 36.9C33.8236 34.4333 34.8236 32.2667 36.2902 30.4C37.8236 28.4667 39.5236 26.8667 41.3902 25.6C41.7902 25.3333 42.1236 25.1333 42.3902 25C42.7236 24.8667 42.8902 24.8 42.8902 24.8L42.6902 25.6C42.6236 25.7333 42.5569 25.8667 42.4902 26C42.4902 26.1333 42.2902 26.3667 41.8902 26.7C40.8236 27.6333 39.8569 28.7333 38.9902 30C38.1902 31.2 37.6236 32.5333 37.2902 34C37.1569 34.8 37.3236 35.5667 37.7902 36.3C38.2569 36.9667 38.9236 37.3667 39.7902 37.5L39.3902 38.6C39.0569 38.6667 38.5902 38.8667 37.9902 39.2C37.3902 39.4667 36.9569 39.7 36.6902 39.9C36.4236 40.1 36.1569 40.3667 35.8902 40.7C35.6236 40.9667 35.3902 41.1 35.1902 41.1ZM93.077 87.2C90.4103 87.2 87.7436 86.9667 85.077 86.5C82.4103 86.1 79.977 85.3333 77.777 84.2C75.6436 83.0667 73.9103 81.4667 72.577 79.4C71.2436 77.3333 70.577 74.6667 70.577 71.4C70.577 68.6667 71.1103 65.5333 72.177 62C73.3103 58.4 74.977 54.8 77.177 51.2C79.377 47.5333 82.1103 44.1333 85.377 41C88.7103 37.8667 92.5436 35.3667 96.877 33.5C101.277 31.5667 106.21 30.6 111.677 30.6C119.677 30.6 125.51 31.9 129.177 34.5C132.844 37.0333 134.677 41 134.677 46.4C134.677 51.6667 133.577 56.7333 131.377 61.6C129.244 66.4667 126.244 70.8333 122.377 74.7C118.577 78.5667 114.177 81.6333 109.177 83.9C104.177 86.1 98.8103 87.2 93.077 87.2ZM92.277 85.7C96.3436 85.7 100.21 84.9333 103.877 83.4C107.61 81.8 110.977 79.6667 113.977 77C117.044 74.2667 119.677 71.1667 121.877 67.7C124.144 64.2333 125.877 60.6 127.077 56.8C128.344 53 128.977 49.2333 128.977 45.5C128.977 41.3667 127.677 38.1 125.077 35.7C122.477 33.3 118.077 32.1 111.877 32.1C108.344 32.1 104.81 33 101.277 34.8C97.8103 36.5333 94.5436 38.8667 91.477 41.8C88.477 44.7333 85.777 47.9667 83.377 51.5C81.0436 55.0333 79.2103 58.6 77.877 62.2C76.5436 65.8 75.877 69.1667 75.877 72.3C75.877 76.5 77.1103 79.8 79.577 82.2C82.1103 84.5333 86.3436 85.7 92.277 85.7ZM133.252 87.5C132.985 87.5 132.985 87.2 133.252 86.6C133.585 86 133.885 85.3333 134.152 84.6C134.485 83.8667 134.819 83.0667 135.152 82.2C135.819 80.6 136.552 78.8 137.352 76.8C138.152 74.8 138.919 72.8667 139.652 71C140.385 69.0667 141.019 67.4333 141.552 66.1C142.152 64.7 142.552 63.8 142.752 63.4C141.819 64.4 140.685 65.6667 139.352 67.2C138.085 68.6667 136.885 70.1 135.752 71.5C134.619 72.9 133.752 74 133.152 74.8C132.952 75.0667 132.785 75.2 132.652 75.2C132.519 75.2 132.452 75.0333 132.452 74.7C132.452 74.1667 132.619 73.6667 132.952 73.2C134.219 71.6 135.619 69.8 137.152 67.8C138.752 65.8 140.185 63.9667 141.452 62.3C142.719 60.5667 143.519 59.4333 143.852 58.9C144.585 58.7667 145.652 58.5667 147.052 58.3C148.519 58.0333 149.519 57.6667 150.052 57.2C150.252 57 150.452 56.9 150.652 56.9C150.785 56.9 150.852 57.0333 150.852 57.3C150.919 57.5 150.852 57.7333 150.652 58C150.252 58.4667 149.552 59.5667 148.552 61.3C147.619 62.9667 146.585 64.8333 145.452 66.9C144.385 68.9667 143.385 70.8333 142.452 72.5C143.252 71.4333 144.119 70.4 145.052 69.4C145.985 68.4 146.885 67.4333 147.752 66.5C148.552 65.7 149.652 64.7 151.052 63.5C152.452 62.3 153.919 61.2 155.452 60.2C156.985 59.2 158.319 58.6333 159.452 58.5C159.719 58.4333 159.952 58.4 160.152 58.4C160.419 58.4 160.619 58.4 160.752 58.4C162.219 58.4 162.952 58.9333 162.952 60C162.952 60.8 162.519 61.8667 161.652 63.2C161.185 63.9333 160.452 65.1667 159.452 66.9C158.519 68.5667 157.552 70.4 156.552 72.4C155.619 74.3333 154.785 76.1667 154.052 77.9C153.385 79.5667 153.052 80.8 153.052 81.6C153.052 82.5333 153.519 83 154.452 83C155.585 83 156.819 82.4333 158.152 81.3C159.552 80.1667 161.052 78.7333 162.652 77C164.252 75.2 165.852 73.3 167.452 71.3C167.585 71.4333 167.652 71.6667 167.652 72C167.652 72.4667 167.485 72.9333 167.152 73.4C166.885 73.8 166.619 74.1667 166.352 74.5C165.685 75.3667 164.785 76.4667 163.652 77.8C162.585 79.0667 161.485 80.3333 160.352 81.6C159.219 82.8 158.185 83.7667 157.252 84.5C156.585 84.9667 155.719 85.4667 154.652 86C153.585 86.5333 152.519 86.8 151.452 86.8C150.252 86.8 149.419 86.5 148.952 85.9C148.485 85.2333 148.252 84.4333 148.252 83.5C148.252 82.4333 148.452 81.3 148.852 80.1C149.252 78.9 149.685 77.7667 150.152 76.7C150.685 75.5667 151.085 74.7333 151.352 74.2C152.552 71.8667 153.652 69.6667 154.652 67.6C155.652 65.5333 156.352 64.0667 156.752 63.2C156.952 62.8 157.052 62.4667 157.052 62.2C157.052 61.7333 156.685 61.7 155.952 62.1C155.219 62.5 154.319 63.1 153.252 63.9C152.252 64.7 151.319 65.5 150.452 66.3C149.585 67.0333 149.019 67.5333 148.752 67.8C146.285 70.4 144.119 73.3 142.252 76.5C140.452 79.6333 138.919 82.8667 137.652 86.2C136.785 86.2667 135.919 86.5 135.052 86.9C134.185 87.3 133.585 87.5 133.252 87.5ZM190.754 87C188.688 87 186.721 86.4333 184.854 85.3C182.988 84.1 181.588 82.3 180.654 79.9C180.321 79.0333 180.088 78.1333 179.954 77.2C179.821 76.2 179.754 75.2333 179.754 74.3C179.754 73.3667 179.921 72.9 180.254 72.9C180.654 72.9 180.854 73.1667 180.854 73.7C180.854 76.8333 181.621 79.2 183.154 80.8C184.754 82.4 186.721 83.2 189.054 83.2C191.388 83.2 193.621 82.5333 195.754 81.2C197.954 79.8667 199.988 78.1667 201.854 76.1C204.921 72.7667 207.521 69.4 209.654 66C211.788 62.5333 213.721 59 215.454 55.4C217.254 51.7333 219.054 47.9333 220.854 44C221.988 41.6 223.388 39.5 225.054 37.7C226.788 35.9 228.854 34.6667 231.254 34L231.354 33.9H225.854C223.521 33.9 221.054 34 218.454 34.2C215.854 34.4 213.488 34.8333 211.354 35.5C209.288 36.1667 207.788 37.1667 206.854 38.5C206.254 39.3667 205.954 40.3667 205.954 41.5C205.954 42.6333 206.254 43.7333 206.854 44.8C207.454 45.8667 208.221 46.6333 209.154 47.1C209.288 47.2333 209.354 47.3333 209.354 47.4C209.354 47.5333 209.188 47.7 208.854 47.9C208.588 48.0333 208.288 48.0667 207.954 48C207.421 47.6667 206.754 47.1333 205.954 46.4C205.154 45.6 204.421 44.7667 203.754 43.9C203.154 43.0333 202.754 42.3 202.554 41.7C202.288 40.9 202.154 40.1 202.154 39.3C202.154 37.7 202.721 36.4 203.854 35.4C205.054 34.4 206.588 33.6333 208.454 33.1C210.321 32.5667 212.321 32.2 214.454 32C216.654 31.7333 218.754 31.6 220.754 31.6C222.821 31.5333 224.588 31.5 226.054 31.5H236.854C236.988 31.5 237.054 31.5333 237.054 31.6C237.054 31.8 236.821 32.1 236.354 32.5C235.954 32.8333 235.688 33 235.554 33C233.888 33.3333 232.654 34.2333 231.854 35.7C231.054 37.1 230.688 39.3667 230.754 42.5C230.754 42.5 230.754 43.2333 230.754 44.7C230.821 46.1667 230.888 48.0667 230.954 50.4C231.021 52.7333 231.088 55.2333 231.154 57.9C231.221 60.5667 231.288 63.1333 231.354 65.6C231.421 68.0667 231.488 70.1333 231.554 71.8V72.4L266.254 35.8C268.454 33.4667 270.621 31.5 272.754 29.9C274.954 28.2333 277.221 27.5 279.554 27.7C279.621 27.7 279.654 27.7333 279.654 27.8C279.721 27.8 279.754 27.8 279.754 27.8C279.754 28 279.621 28.2333 279.354 28.5C279.088 28.7667 278.788 28.9333 278.454 29C276.721 28.9333 275.154 29.6 273.754 31C272.354 32.4 271.054 34.0667 269.854 36C269.254 37 268.354 38.6 267.154 40.8C265.954 42.9333 264.588 45.4667 263.054 48.4C261.588 51.3333 260.088 54.4333 258.554 57.7C257.021 60.9667 255.588 64.1667 254.254 67.3C252.988 70.4333 251.954 73.3 251.154 75.9C250.354 78.4333 249.954 80.5 249.954 82.1C249.954 83.9667 250.588 84.9 251.854 84.9C252.388 84.9 252.954 84.7667 253.554 84.5C254.421 84.1667 255.388 83.6667 256.454 83C257.521 82.3333 258.488 81.5667 259.354 80.7C261.088 79.0333 262.621 77.3333 263.954 75.6C265.288 73.8 266.088 72.7667 266.354 72.5C266.554 72.2333 266.721 72.1 266.854 72.1C267.121 72.1 267.254 72.3 267.254 72.7C267.254 73.1 267.121 73.4667 266.854 73.8C266.321 74.4667 265.421 75.6333 264.154 77.3C262.888 78.9 261.388 80.5333 259.654 82.2C257.988 83.8667 256.188 85.1333 254.254 86C253.654 86.2667 253.021 86.4667 252.354 86.6C251.688 86.8 251.021 86.9 250.354 86.9C248.888 86.9 247.554 86.4667 246.354 85.6C245.221 84.6667 244.654 83.1333 244.654 81C244.654 78.9333 245.121 76.6 246.054 74C247.054 71.3333 248.154 68.7667 249.354 66.3C250.621 63.7667 251.654 61.6333 252.454 59.9C253.321 58.1 254.421 55.8 255.754 53C257.088 50.2 258.621 47.3667 260.354 44.5L231.554 74.9C231.488 75.4333 231.254 75.9667 230.854 76.5C230.454 76.9667 229.821 77.3667 228.954 77.7C228.488 77.9 227.854 78.4333 227.054 79.3C226.254 80.1667 225.721 80.7667 225.454 81.1C225.454 81.1667 225.354 81.2 225.154 81.2C224.954 81.2 224.754 81.1333 224.554 81C224.354 80.8667 224.288 80.7667 224.354 80.7C226.088 78.5 226.988 75.4667 227.054 71.6L227.154 69.2C227.288 66.4 227.388 63.4667 227.454 60.4C227.521 57.2667 227.554 54.3667 227.554 51.7C227.621 48.9667 227.654 46.7667 227.654 45.1C227.654 43.3667 227.654 42.5 227.654 42.5C227.654 40.9 227.888 39.5 228.354 38.3C228.821 37.1 229.388 36.0667 230.054 35.2C228.921 36.0667 227.821 37.1 226.754 38.3C225.688 39.5 224.788 40.8333 224.054 42.3C223.054 44.3667 221.921 47.0333 220.654 50.3C219.388 53.5667 217.921 57.0333 216.254 60.7C214.654 64.3667 212.854 67.9667 210.854 71.5C208.921 74.9667 206.754 77.9667 204.354 80.5C202.688 82.3 200.554 83.8333 197.954 85.1C195.421 86.3667 193.021 87 190.754 87ZM255.262 121C252.729 121 250.295 120.4 247.962 119.2C245.562 118.067 243.795 116.3 242.662 113.9C242.262 113.033 241.995 112.1 241.862 111.1C241.729 110.167 241.662 109.233 241.662 108.3V107.2C241.662 106.667 241.729 106.167 241.862 105.7C241.995 105.3 242.329 105.1 242.862 105.1C242.995 105.1 243.062 105.167 243.062 105.3C243.062 105.7 243.029 106.1 242.962 106.5C242.895 106.9 242.862 107.333 242.862 107.8C242.862 110.867 243.862 113.2 245.862 114.8C247.795 116.4 250.229 117.2 253.162 117.2C254.362 117.2 255.595 117.067 256.862 116.8C258.129 116.533 259.329 116.167 260.462 115.7C264.662 113.9 268.295 111.333 271.362 108C274.495 104.733 277.229 101.033 279.562 96.9C281.895 92.7667 283.995 88.5667 285.862 84.3C286.929 81.7667 287.862 79.3 288.662 76.9C289.529 74.5 290.295 72.3333 290.962 70.4C290.295 71.3333 289.429 72.4667 288.362 73.8C287.295 75.1333 286.229 76.4333 285.162 77.7C284.095 78.9 283.162 79.8667 282.362 80.6C280.695 82.2 278.895 83.5667 276.962 84.7C275.095 85.7667 273.162 86.3 271.162 86.3C270.495 86.3 269.929 86.1667 269.462 85.9C268.995 85.6333 268.762 85.1333 268.762 84.4C268.762 83.4667 268.995 82.3667 269.462 81.1C269.995 79.8333 270.562 78.5667 271.162 77.3C271.762 76.0333 272.262 75 272.662 74.2C273.462 72.6667 274.229 71.1333 274.962 69.6C275.695 68.0667 276.329 66.7667 276.862 65.7C277.395 64.7 277.662 64.0333 277.662 63.7C277.662 63.1667 277.262 63.1667 276.462 63.7C275.729 64.2333 275.029 64.7667 274.362 65.3C272.895 66.7 271.362 68.3667 269.762 70.3C268.162 72.1667 266.929 73.6667 266.062 74.8C265.862 75.0667 265.695 75.2 265.562 75.2C265.429 75.2 265.362 75.0333 265.362 74.7C265.362 74.1667 265.529 73.6667 265.862 73.2C266.795 71.8667 267.895 70.4 269.162 68.8C270.429 67.2 271.729 65.6667 273.062 64.2C274.329 62.8667 275.629 61.5667 276.962 60.3C278.295 59.0333 279.995 58.4 282.062 58.4C283.462 58.4 284.162 58.9333 284.162 60C284.162 60.9333 283.762 62 282.962 63.2C282.495 63.9333 281.762 65.1667 280.762 66.9C279.762 68.6333 278.729 70.5333 277.662 72.6C276.662 74.6 275.795 76.4667 275.062 78.2C274.329 79.9333 273.962 81.2 273.962 82C273.962 82.9333 274.429 83.4 275.362 83.4C276.095 83.4 276.995 83.0333 278.062 82.3C279.129 81.5 280.229 80.5667 281.362 79.5C283.295 77.6333 285.062 75.5667 286.662 73.3C288.329 71.0333 289.762 68.8667 290.962 66.8C291.162 66.4667 291.495 65.8667 291.962 65C292.495 64.1333 293.029 63.3 293.562 62.5C294.162 61.7 294.629 61.2333 294.962 61.1C295.295 60.9667 295.962 60.6 296.962 60C297.962 59.4 298.962 59 299.962 58.8C300.895 58.6 301.595 58.5 302.062 58.5C302.795 58.5 303.162 58.7 303.162 59.1C303.162 59.6333 302.862 59.9 302.262 59.9C301.529 59.9 300.862 60.1 300.262 60.5C299.662 60.8333 299.195 61.2667 298.862 61.8C298.262 62.6667 297.395 64.2333 296.262 66.5C295.195 68.7667 293.995 71.4 292.662 74.4C291.395 77.3333 290.129 80.3333 288.862 83.4C287.595 86.4 286.429 89.1667 285.362 91.7C283.762 95.5 281.929 99.2 279.862 102.8C277.795 106.467 275.362 109.733 272.562 112.6C269.829 115.533 266.562 117.833 262.762 119.5C260.495 120.5 257.995 121 255.262 121ZM341.132 90.9C340.598 90.9 340.165 90.8 339.832 90.6C339.498 90.4667 339.365 90.1333 339.432 89.6C339.432 89.4 339.532 89.1 339.732 88.7C339.932 88.3 340.065 88 340.132 87.8C340.465 86.8667 340.765 85.9333 341.032 85C341.298 84 341.565 83.0667 341.832 82.2C342.765 78.5333 343.632 74.9 344.432 71.3C345.232 67.6333 345.865 63.9667 346.332 60.3C346.465 59.3667 346.565 58.3 346.632 57.1C346.698 55.8333 346.732 54.5 346.732 53.1C346.732 49.9 346.398 46.5 345.732 42.9C345.065 39.3 343.765 36.3667 341.832 34.1H334.232C333.232 34.1 331.832 34.1667 330.032 34.3C328.298 34.4333 326.498 34.7333 324.632 35.2C322.832 35.6667 321.332 36.4333 320.132 37.5C318.932 38.5667 318.398 40 318.532 41.8C318.598 42.3333 318.798 43.0667 319.132 44C319.465 44.8667 319.698 45.4 319.832 45.6L318.732 46.4C318.332 45.6667 317.832 44.8333 317.232 43.9C316.632 42.9 316.098 41.9333 315.632 41C315.165 40.0667 314.898 39.3667 314.832 38.9C314.765 38.2333 314.798 37.3667 314.932 36.3C315.065 35.2333 315.598 34.3 316.532 33.5C317.532 32.6333 318.898 32.0667 320.632 31.8C322.432 31.5333 324.265 31.4 326.132 31.4C327.932 31.4 329.665 31.4667 331.332 31.6C332.998 31.7333 334.365 31.8 335.432 31.8C335.432 31.8 336.198 31.8 337.732 31.8C339.265 31.8 341.198 31.8 343.532 31.8C345.932 31.7333 348.465 31.7 351.132 31.7C353.798 31.7 356.232 31.7 358.432 31.7L356.332 34.3C354.332 34.3 352.332 34.3 350.332 34.3C348.398 34.2333 346.432 34.2 344.432 34.2C346.565 35.6 348.132 37.4333 349.132 39.7C350.198 41.9667 350.898 44.3333 351.232 46.8C351.565 49.2667 351.732 51.5667 351.732 53.7C351.732 54.5667 351.698 55.4 351.632 56.2C351.632 57 351.632 57.7 351.632 58.3C351.498 61.4333 351.065 65.2 350.332 69.6C349.598 74 348.665 78.1667 347.532 82.1C349.732 79.0333 352.198 75.4 354.932 71.2C357.732 66.9333 360.865 62.4667 364.332 57.8C367.865 53.0667 371.698 48.5 375.832 44.1C377.498 42.3667 379.265 40.6 381.132 38.8C382.998 37 384.998 35.5 387.132 34.3C389.265 33.1 391.565 32.5 394.032 32.5C396.165 32.5 397.798 32.8333 398.932 33.5L398.332 34.6C398.065 34.5333 397.798 34.5 397.532 34.5C397.332 34.4333 397.065 34.4 396.732 34.4C394.865 34.4 392.865 34.9667 390.732 36.1C388.665 37.2333 387.065 38.3667 385.932 39.5C383.865 41.5667 382.265 44.0333 381.132 46.9C379.998 49.7 379.165 52.7 378.632 55.9C378.165 59.0333 377.798 62.2333 377.532 65.5C377.265 68.7 376.998 71.7333 376.732 74.6C376.532 77.4667 376.132 79.9667 375.532 82.1C378.265 78.2333 381.632 73.6333 385.632 68.3C389.698 62.9667 394.332 57.4333 399.532 51.7C404.732 45.9 410.432 40.4 416.632 35.2C417.898 34.1333 419.532 32.9333 421.532 31.6C423.598 30.2667 425.765 29.1333 428.032 28.2C430.365 27.2 432.565 26.7 434.632 26.7C436.565 26.7 437.898 27.0333 438.632 27.7C439.432 28.3667 439.832 29.2333 439.832 30.3C439.832 31.5667 439.432 32.9667 438.632 34.5C437.898 36.0333 437.332 37.3 436.932 38.3C436.865 38.5 436.565 38.6333 436.032 38.7C435.498 38.7667 435.265 38.6667 435.332 38.4C435.465 37.8667 435.598 37.2333 435.732 36.5C435.932 35.7 436.032 34.9 436.032 34.1C436.032 33.0333 435.832 32.0667 435.432 31.2C435.032 30.3333 434.265 29.8333 433.132 29.7C432.932 29.6333 432.732 29.6 432.532 29.6C432.332 29.6 432.132 29.6 431.932 29.6C430.065 29.6 428.032 30.2667 425.832 31.6C423.632 32.8667 421.098 34.6667 418.232 37C412.632 41.4667 407.265 46.4 402.132 51.8C396.998 57.1333 392.132 62.7333 387.532 68.6C385.132 71.6 382.798 74.6333 380.532 77.7C378.265 80.7667 376.165 83.9667 374.232 87.3C374.098 87.5667 373.965 87.8667 373.832 88.2C373.765 88.6 373.665 88.9 373.532 89.1C373.398 89.2333 372.998 89.4333 372.332 89.7C371.665 90.0333 370.998 90.3 370.332 90.5C369.732 90.7667 369.332 90.9 369.132 90.9C368.598 90.9 368.165 90.8 367.832 90.6C367.498 90.4667 367.365 90.1333 367.432 89.6C367.432 89.4 367.532 89.1 367.732 88.7C367.932 88.3 368.065 88 368.132 87.8C368.465 86.8667 368.765 85.9333 369.032 85C369.298 84 369.565 83.0667 369.832 82.2C370.632 79.2667 371.198 76.1667 371.532 72.9C371.932 69.6333 372.298 66.3667 372.632 63.1C373.032 59.7667 373.632 56.5667 374.432 53.5C375.232 50.4333 376.465 47.6667 378.132 45.2C376.798 46 374.898 47.9667 372.432 51.1C369.965 54.1667 366.965 57.9 363.432 62.3C362.232 63.7667 360.898 65.6 359.432 67.8C357.965 69.9333 356.465 72.2 354.932 74.6C353.465 76.9333 352.032 79.2333 350.632 81.5C349.298 83.7 348.165 85.6333 347.232 87.3C347.098 87.5667 346.965 87.8667 346.832 88.2C346.765 88.6 346.665 88.9 346.532 89.1C346.398 89.2333 345.898 89.4333 345.032 89.7C344.232 90.0333 343.432 90.3 342.632 90.5C341.832 90.7667 341.332 90.9 341.132 90.9ZM419.592 86.3C418.925 86.3 418.358 86.1667 417.892 85.9C417.425 85.6333 417.192 85.1333 417.192 84.4C417.192 83.4667 417.425 82.4 417.892 81.2C418.358 80 418.892 78.8333 419.492 77.7C420.092 76.5 420.625 75.5333 421.092 74.8C418.758 77.2667 416.325 79.6 413.792 81.8C412.525 82.8667 411.125 83.8667 409.592 84.8C408.058 85.7333 406.425 86.2 404.692 86.2C404.025 86.2 403.558 86 403.292 85.6C403.025 85.1333 402.892 84.6 402.892 84C402.892 83.6667 402.925 83.4333 402.992 83.3C403.325 80.7 404.158 78 405.492 75.2C406.825 72.4 408.458 69.7667 410.392 67.3C412.325 64.8333 414.292 62.8333 416.292 61.3C418.558 59.5667 421.058 58.7 423.792 58.7H435.292C435.625 58.7 435.792 58.8333 435.792 59.1C435.792 59.6333 435.492 59.9 434.892 59.9C434.225 59.9 433.558 60.3333 432.892 61.2C432.225 62 431.725 62.6667 431.392 63.2C430.925 63.9333 430.192 65.1667 429.192 66.9C428.192 68.6333 427.158 70.5333 426.092 72.6C425.092 74.6 424.225 76.4667 423.492 78.2C422.758 79.9333 422.392 81.2 422.392 82C422.392 82.9333 422.858 83.4 423.792 83.4C424.792 83.4 425.925 82.9333 427.192 82C428.458 81.0667 429.725 79.9333 430.992 78.6C432.325 77.2 433.525 75.8333 434.592 74.5C435.725 73.1 436.625 72 437.292 71.2C437.692 71.6 437.658 72.1667 437.192 72.9C436.792 73.5667 436.425 74.1 436.092 74.5C434.758 76.2333 433.225 78.0333 431.492 79.9C429.758 81.7 427.858 83.2333 425.792 84.5C423.792 85.7 421.725 86.3 419.592 86.3ZM408.792 82.8C409.592 82.8 410.692 82.2333 412.092 81.1C413.558 79.9 415.125 78.4333 416.792 76.7C418.458 74.9 420.025 73.0333 421.492 71.1C422.958 69.1 424.158 67.3 425.092 65.7C426.092 64.0333 426.592 62.7667 426.592 61.9C426.592 61.1667 426.358 60.6667 425.892 60.4C425.492 60.1333 424.958 60 424.292 60C423.225 60 422.058 60.4 420.792 61.2C419.592 61.9333 418.625 62.6667 417.892 63.4C417.092 64.1333 416.125 65.3 414.992 66.9C413.925 68.4333 412.858 70.1333 411.792 72C410.725 73.8667 409.825 75.6667 409.092 77.4C408.358 79.1333 407.992 80.5333 407.992 81.6C407.992 82.4 408.258 82.8 408.792 82.8ZM425.086 121C422.553 121 420.12 120.4 417.786 119.2C415.386 118.067 413.62 116.3 412.486 113.9C412.086 113.033 411.82 112.1 411.686 111.1C411.553 110.167 411.486 109.233 411.486 108.3V107.2C411.486 106.667 411.553 106.167 411.686 105.7C411.82 105.3 412.153 105.1 412.686 105.1C412.82 105.1 412.886 105.167 412.886 105.3C412.886 105.7 412.853 106.1 412.786 106.5C412.72 106.9 412.686 107.333 412.686 107.8C412.686 110.867 413.686 113.2 415.686 114.8C417.62 116.4 420.053 117.2 422.986 117.2C424.186 117.2 425.42 117.067 426.686 116.8C427.953 116.533 429.153 116.167 430.286 115.7C434.486 113.9 438.12 111.333 441.186 108C444.32 104.733 447.053 101.033 449.386 96.9C451.72 92.7667 453.82 88.5667 455.686 84.3C456.753 81.7667 457.686 79.3 458.486 76.9C459.353 74.5 460.12 72.3333 460.786 70.4C460.12 71.3333 459.253 72.4667 458.186 73.8C457.12 75.1333 456.053 76.4333 454.986 77.7C453.92 78.9 452.986 79.8667 452.186 80.6C450.52 82.2 448.72 83.5667 446.786 84.7C444.92 85.7667 442.986 86.3 440.986 86.3C440.32 86.3 439.753 86.1667 439.286 85.9C438.82 85.6333 438.586 85.1333 438.586 84.4C438.586 83.4667 438.82 82.3667 439.286 81.1C439.82 79.8333 440.386 78.5667 440.986 77.3C441.586 76.0333 442.086 75 442.486 74.2C443.286 72.6667 444.053 71.1333 444.786 69.6C445.52 68.0667 446.153 66.7667 446.686 65.7C447.22 64.7 447.486 64.0333 447.486 63.7C447.486 63.1667 447.086 63.1667 446.286 63.7C445.553 64.2333 444.853 64.7667 444.186 65.3C442.72 66.7 441.186 68.3667 439.586 70.3C437.986 72.1667 436.753 73.6667 435.886 74.8C435.686 75.0667 435.52 75.2 435.386 75.2C435.253 75.2 435.186 75.0333 435.186 74.7C435.186 74.1667 435.353 73.6667 435.686 73.2C436.62 71.8667 437.72 70.4 438.986 68.8C440.253 67.2 441.553 65.6667 442.886 64.2C444.153 62.8667 445.453 61.5667 446.786 60.3C448.12 59.0333 449.82 58.4 451.886 58.4C453.286 58.4 453.986 58.9333 453.986 60C453.986 60.9333 453.586 62 452.786 63.2C452.32 63.9333 451.586 65.1667 450.586 66.9C449.586 68.6333 448.553 70.5333 447.486 72.6C446.486 74.6 445.62 76.4667 444.886 78.2C444.153 79.9333 443.786 81.2 443.786 82C443.786 82.9333 444.253 83.4 445.186 83.4C445.92 83.4 446.82 83.0333 447.886 82.3C448.953 81.5 450.053 80.5667 451.186 79.5C453.12 77.6333 454.886 75.5667 456.486 73.3C458.153 71.0333 459.586 68.8667 460.786 66.8C460.986 66.4667 461.32 65.8667 461.786 65C462.32 64.1333 462.853 63.3 463.386 62.5C463.986 61.7 464.453 61.2333 464.786 61.1C465.12 60.9667 465.786 60.6 466.786 60C467.786 59.4 468.786 59 469.786 58.8C470.72 58.6 471.42 58.5 471.886 58.5C472.62 58.5 472.986 58.7 472.986 59.1C472.986 59.6333 472.686 59.9 472.086 59.9C471.353 59.9 470.686 60.1 470.086 60.5C469.486 60.8333 469.02 61.2667 468.686 61.8C468.086 62.6667 467.22 64.2333 466.086 66.5C465.02 68.7667 463.82 71.4 462.486 74.4C461.22 77.3333 459.953 80.3333 458.686 83.4C457.42 86.4 456.253 89.1667 455.186 91.7C453.586 95.5 451.753 99.2 449.686 102.8C447.62 106.467 445.186 109.733 442.386 112.6C439.653 115.533 436.386 117.833 432.586 119.5C430.32 120.5 427.82 121 425.086 121ZM490.656 86.3C489.989 86.3 489.423 86.1667 488.956 85.9C488.489 85.6333 488.256 85.1333 488.256 84.4C488.256 83.4667 488.489 82.3667 488.956 81.1C489.489 79.8333 490.056 78.5667 490.656 77.3C491.256 76.0333 491.756 75 492.156 74.2C492.489 73.6 492.923 72.6667 493.456 71.4C494.056 70.0667 494.656 68.7 495.256 67.3C495.923 65.8333 496.456 64.6 496.856 63.6C497.323 62.6 497.556 62.1 497.556 62.1C496.956 62.7667 496.156 63.7 495.156 64.9C494.223 66.1 493.189 67.3667 492.056 68.7C490.989 69.9667 489.989 71.1667 489.056 72.3C488.189 73.4333 487.556 74.2667 487.156 74.8C486.956 75.0667 486.789 75.2 486.656 75.2C486.523 75.2 486.456 75.0333 486.456 74.7C486.456 74.1667 486.623 73.6667 486.956 73.2C487.756 72.2 488.723 71 489.856 69.6C490.989 68.1333 492.123 66.6667 493.256 65.2C494.456 63.7333 495.489 62.4333 496.356 61.3C495.823 61.3 495.123 61.3333 494.256 61.4C493.456 61.4667 492.723 61.5667 492.056 61.7C491.389 61.7667 491.023 61.8 490.956 61.8C490.623 61.8 490.656 61.5333 491.056 61C491.456 60.4667 491.989 59.9333 492.656 59.4C493.323 58.8667 493.823 58.6 494.156 58.6C494.223 58.6 494.756 58.6333 495.756 58.7C496.756 58.7 497.489 58.7 497.956 58.7C499.289 56.9 500.589 54.8333 501.856 52.5C503.189 50.1667 504.489 47.6 505.756 44.8C506.289 44.7333 507.189 44.3667 508.456 43.7C509.789 42.9667 510.823 42.2333 511.556 41.5C511.889 41.1667 512.156 41 512.356 41C512.756 41 512.756 41.2667 512.356 41.8C511.889 42.3333 511.089 43.4667 509.956 45.2C508.823 46.8667 507.556 48.9 506.156 51.3C504.756 53.6333 503.423 56.1 502.156 58.7H510.256C510.989 58.7 511.356 58.8 511.356 59C511.356 59.2667 510.856 59.5333 509.856 59.8C508.723 60.1333 507.523 60.3333 506.256 60.4C505.056 60.4667 503.923 60.6 502.856 60.8C501.856 61 501.123 61.4333 500.656 62.1C500.256 62.5667 499.689 63.5667 498.956 65.1C498.223 66.6333 497.423 68.4 496.556 70.4C495.756 72.3333 495.056 74.3 494.456 76.3C493.856 78.2333 493.489 79.8667 493.356 81.2V81.6C493.356 82.1333 493.523 82.5667 493.856 82.9C494.189 83.2333 494.523 83.4 494.856 83.4C495.723 83.4 496.823 82.8667 498.156 81.8C499.556 80.7333 500.989 79.4667 502.456 78C503.923 76.4667 505.189 75.0667 506.256 73.8C506.723 73.2667 507.123 72.7667 507.456 72.3C507.856 71.8333 508.089 71.5333 508.156 71.4C508.289 71.6667 508.356 71.8667 508.356 72C508.356 72.4 508.223 72.8333 507.956 73.3C507.756 73.7667 507.523 74.1667 507.256 74.5C505.989 76.1667 504.456 77.9333 502.656 79.8C500.856 81.6 498.923 83.1333 496.856 84.4C494.856 85.6667 492.789 86.3 490.656 86.3ZM508.08 86.2C507.013 86.2 506.047 86 505.18 85.6C504.38 85.1333 503.98 84.1667 503.98 82.7C503.98 80.3667 504.58 78.0333 505.78 75.7C506.98 73.3 508.213 71.2 509.48 69.4C510.613 67.8667 511.88 66.4333 513.28 65.1C514.747 63.7 516.313 62.5 517.98 61.5C519.047 60.8333 520.48 60.1333 522.28 59.4C524.147 58.6 525.713 58.2 526.98 58.2C528.047 58.2 528.98 58.5 529.78 59.1C530.58 59.6333 530.98 60.6333 530.98 62.1C530.98 64.3667 530.38 66.7 529.18 69.1C528.047 71.4333 526.847 73.5 525.58 75.3C524.98 76.1 524.38 76.8667 523.78 77.6C523.18 78.2667 522.513 78.9667 521.78 79.7C524.247 79.7 526.513 79 528.58 77.6C530.647 76.1333 532.447 74.3667 533.98 72.3L534.18 72.1C534.38 72.1 534.48 72.3 534.48 72.7C534.48 73.1667 534.347 73.6 534.08 74C532.747 75.8667 531.08 77.5333 529.08 79C527.08 80.4 524.813 81.1 522.28 81.1C522.013 81.1 521.747 81.1 521.48 81.1C521.213 81.1 520.947 81.0667 520.68 81C516.947 84.4667 512.747 86.2 508.08 86.2ZM510.68 84.5C511.613 84.5 512.613 84.1667 513.68 83.5C514.813 82.8333 515.68 82.2 516.28 81.6C517.413 80.4667 518.447 79.2667 519.38 78C520.313 76.6667 521.18 75.3333 521.98 74C522.913 72.4 523.847 70.5 524.78 68.3C525.713 66.1 526.18 64.0333 526.18 62.1C526.18 60.5667 525.647 59.8 524.58 59.8C523.713 59.8 522.647 60.1667 521.38 60.9C520.18 61.6333 519.28 62.3 518.68 62.9C516.413 65.2333 514.513 67.7667 512.98 70.5C512.113 72.0333 511.18 73.8333 510.18 75.9C509.18 77.9667 508.68 79.8667 508.68 81.6C508.68 81.8667 508.68 82.1333 508.68 82.4C508.747 82.6 508.813 82.8333 508.88 83.1C509.147 84.0333 509.747 84.5 510.68 84.5ZM593.639 88.3C591.973 88.3 590.273 87.7667 588.539 86.7C586.873 85.7 585.173 84.0667 583.439 81.8C581.306 78.8667 579.506 76.0667 578.039 73.4C576.573 70.7333 575.373 68.4 574.439 66.4C573.573 64.4 572.906 62.9667 572.439 62.1C572.439 62.1 572.606 61.9 572.939 61.5C573.273 61.0333 573.673 60.6 574.139 60.2C574.673 59.7333 575.106 59.5 575.439 59.5C578.573 59.5 581.373 59.4667 583.839 59.4C586.373 59.2667 588.606 58.8667 590.539 58.2C592.539 57.4667 594.306 56.2333 595.839 54.5C597.373 52.7667 598.673 50.3 599.739 47.1C600.073 46.3 600.273 45.5 600.339 44.7C600.473 43.8333 600.539 43 600.539 42.2C600.539 39.9333 599.973 37.9333 598.839 36.2C597.706 34.4667 596.073 33.4667 593.939 33.2C593.673 33.1333 593.373 33.1 593.039 33.1C592.706 33.1 592.373 33.1 592.039 33.1C590.773 33.1 589.373 33.2667 587.839 33.6C586.373 33.9333 585.273 34.5667 584.539 35.5C582.873 37.7 581.273 40.2 579.739 43C578.206 45.7333 576.739 48.5333 575.339 51.4C573.939 54.2 572.606 56.8333 571.339 59.3C571.006 59.9667 570.373 61.1667 569.439 62.9C568.506 64.5667 567.473 66.5 566.339 68.7C565.206 70.8333 564.139 72.9667 563.139 75.1C562.139 77.2333 561.339 79.1333 560.739 80.8C560.206 82.4667 560.073 83.6 560.339 84.2C560.406 84.2667 560.439 84.3667 560.439 84.5C560.439 84.7 560.339 84.8 560.139 84.8C559.606 84.8 559.073 84.6667 558.539 84.4C558.006 84.1333 557.373 84 556.639 84C555.973 84 555.306 84.1667 554.639 84.5C553.973 84.7667 553.106 85.2667 552.039 86C550.973 86.7333 549.773 87.3333 548.439 87.8C548.306 87.8667 548.106 87.9 547.839 87.9C547.373 87.9 547.006 87.7667 546.739 87.5C546.473 87.3 546.473 87.1333 546.739 87C548.206 86.7333 549.473 86.2 550.539 85.4C551.606 84.5333 552.473 83.4667 553.139 82.2C554.539 79.8667 555.906 77.5333 557.239 75.2C558.639 72.8 559.973 70.4 561.239 68C562.773 65.0667 564.339 62.1333 565.939 59.2C567.539 56.2 569.139 53.2333 570.739 50.3C572.273 47.5667 573.639 44.9333 574.839 42.4C576.039 39.8667 576.939 38.0333 577.539 36.9C578.006 36.0333 578.806 35.2667 579.939 34.6C581.139 33.8667 582.306 33.3 583.439 32.9C583.039 32.9 582.639 32.9 582.239 32.9C581.839 32.8333 581.406 32.8 580.939 32.8C578.873 32.8 576.606 32.9333 574.139 33.2C571.739 33.4 569.373 33.7333 567.039 34.2C564.773 34.6667 562.773 35.3 561.039 36.1C559.306 36.9 558.139 37.8667 557.539 39C557.273 39.6 557.039 40.2 556.839 40.8C556.639 41.4 556.539 42 556.539 42.6C556.539 44.1333 557.073 45.2333 558.139 45.9C558.206 45.9 558.239 45.9667 558.239 46.1C558.239 46.2333 558.106 46.3667 557.839 46.5C557.639 46.6333 557.473 46.6667 557.339 46.6C556.673 46.2667 555.906 45.4667 555.039 44.2C554.239 42.8667 553.706 41.7667 553.439 40.9C553.239 40.1 553.139 39.3667 553.139 38.7C553.139 36.9667 553.706 35.6333 554.839 34.7C555.973 33.7 557.406 33 559.139 32.6C560.873 32.1333 562.639 31.8667 564.439 31.8C566.306 31.6667 567.939 31.6 569.339 31.6C571.473 31.6 574.006 31.6 576.939 31.6C579.873 31.5333 582.573 31.5 585.039 31.5C585.639 31.5 586.306 31.5 587.039 31.5C587.773 31.4333 588.539 31.4 589.339 31.4C591.139 31.4 593.006 31.5 594.939 31.7C596.873 31.9 598.639 32.3333 600.239 33C601.839 33.6667 603.073 34.7 603.939 36.1C605.073 37.9667 605.639 40.1 605.639 42.5C605.639 46.1667 604.673 49.2333 602.739 51.7C602.073 52.5667 601.339 53.4 600.539 54.2C599.739 55 598.806 55.7667 597.739 56.5C596.006 57.7 593.939 58.7333 591.539 59.6C589.139 60.4 586.639 61 584.039 61.4C581.506 61.8 579.173 62.0667 577.039 62.2C577.906 64.0667 579.206 66.5667 580.939 69.7C582.739 72.8333 584.906 75.9667 587.439 79.1C588.773 80.7667 590.139 81.9333 591.539 82.6C592.939 83.2667 594.306 83.6 595.639 83.6C597.773 83.6 599.773 82.9667 601.639 81.7C603.573 80.4333 605.306 78.9667 606.839 77.3C608.439 75.5667 609.706 74.0667 610.639 72.8C610.839 72.4667 611.006 72.3 611.139 72.3C611.339 72.3 611.439 72.5 611.439 72.9C611.439 73.4333 611.239 73.9667 610.839 74.5C607.773 78.7 604.839 82.0667 602.039 84.6C599.239 87.0667 596.439 88.3 593.639 88.3ZM615.696 86.8C612.962 86.8 611.062 86.2667 609.996 85.2C608.929 84.1333 608.396 82.8333 608.396 81.3C608.396 79.3667 608.896 77.3 609.896 75.1C610.962 72.9 611.962 71.0333 612.896 69.5C613.962 67.9 615.396 66.2333 617.196 64.5C618.996 62.7667 620.962 61.3 623.096 60.1C625.229 58.9 627.296 58.3 629.296 58.3C631.029 58.3 632.229 58.7333 632.896 59.6C633.562 60.4 633.896 61.3667 633.896 62.5C633.896 64.5667 633.262 66.2667 631.996 67.6C630.796 68.9333 629.296 70.0333 627.496 70.9C625.696 71.7 623.962 72.3667 622.296 72.9C621.296 73.1667 620.129 73.4333 618.796 73.7C617.462 73.9667 616.196 74.1 614.996 74.1C614.529 75.3 614.162 76.4667 613.896 77.6C613.629 78.7333 613.496 79.7667 613.496 80.7C613.496 81.8333 613.762 82.7667 614.296 83.5C614.896 84.2333 615.862 84.6 617.196 84.6C617.729 84.6 618.362 84.5333 619.096 84.4C619.829 84.2667 620.629 84.0667 621.496 83.8C623.496 83.1333 625.462 82.0667 627.396 80.6C629.329 79.1333 631.096 77.5667 632.696 75.9C634.362 74.1667 635.629 72.7333 636.496 71.6C636.696 71.8 636.796 72.0333 636.796 72.3C636.796 72.6333 636.562 73.1667 636.096 73.9C634.762 75.7667 633.029 77.7 630.896 79.7C628.762 81.7 626.396 83.4 623.796 84.8C621.196 86.1333 618.496 86.8 615.696 86.8ZM615.796 72.1C616.662 72.1667 617.629 72.1667 618.696 72.1C619.829 71.9667 620.929 71.7333 621.996 71.4C624.729 70.6 626.696 69.3333 627.896 67.6C629.162 65.8 629.796 64.2 629.796 62.8C629.796 62 629.629 61.3333 629.296 60.8C628.962 60.2667 628.429 60 627.696 60C625.762 60 624.029 60.7333 622.496 62.2C620.962 63.6 619.629 65.2333 618.496 67.1C617.362 68.9667 616.462 70.6333 615.796 72.1ZM639.098 86.8C636.631 86.8 634.898 86.3333 633.898 85.4C632.898 84.4667 632.398 83.2667 632.398 81.8C632.398 79.8667 633.031 77.7333 634.298 75.4C635.565 73 636.765 71 637.898 69.4C639.031 67.8667 640.298 66.4333 641.698 65.1C643.165 63.7 644.731 62.5 646.398 61.5C647.465 60.8333 648.898 60.1333 650.698 59.4C652.565 58.6 654.131 58.2 655.398 58.2C656.931 58.2 657.998 58.5667 658.598 59.3C659.198 59.9667 659.498 60.8 659.498 61.8C659.498 62.6 659.365 63.4333 659.098 64.3C658.831 65.1 658.531 65.8667 658.198 66.6C657.998 67 657.698 67.3 657.298 67.5C656.898 67.6333 656.698 67.5667 656.698 67.3C656.698 66.9667 656.731 66.6667 656.798 66.4C656.865 66.1333 656.898 65.8333 656.898 65.5C656.898 64.2333 656.598 63 655.998 61.8C655.465 60.5333 654.631 59.9 653.498 59.9C652.298 59.9 650.998 60.3333 649.598 61.2C648.198 62 647.231 62.7 646.698 63.3C644.965 65.1 643.265 67.3333 641.598 70C639.998 72.6667 638.831 75.2 638.098 77.6C637.631 79 637.398 80.2 637.398 81.2C637.398 82.3333 637.698 83.1333 638.298 83.6C638.898 84.0667 639.631 84.3 640.498 84.3C641.165 84.3 641.865 84.2 642.598 84C643.398 83.8 644.231 83.5667 645.098 83.3C647.098 82.6333 649.098 81.6 651.098 80.2C653.165 78.7333 655.031 77.2 656.698 75.6C658.365 73.9333 659.631 72.5 660.498 71.3C660.631 71.4333 660.698 71.6333 660.698 71.9C660.698 72.2333 660.565 72.6333 660.298 73.1C660.031 73.5 659.831 73.8333 659.698 74.1C658.298 75.9667 656.465 77.9 654.198 79.9C651.931 81.8333 649.465 83.4667 646.798 84.8C644.198 86.1333 641.631 86.8 639.098 86.8ZM648.426 121C645.893 121 643.46 120.4 641.126 119.2C638.726 118.067 636.96 116.3 635.826 113.9C635.426 113.033 635.16 112.1 635.026 111.1C634.893 110.167 634.826 109.233 634.826 108.3V107.2C634.826 106.667 634.893 106.167 635.026 105.7C635.16 105.3 635.493 105.1 636.026 105.1C636.16 105.1 636.226 105.167 636.226 105.3C636.226 105.7 636.193 106.1 636.126 106.5C636.06 106.9 636.026 107.333 636.026 107.8C636.026 110.867 637.026 113.2 639.026 114.8C640.96 116.4 643.393 117.2 646.326 117.2C647.526 117.2 648.76 117.067 650.026 116.8C651.293 116.533 652.493 116.167 653.626 115.7C657.826 113.9 661.46 111.333 664.526 108C667.66 104.733 670.393 101.033 672.726 96.9C675.06 92.7667 677.16 88.5667 679.026 84.3C680.093 81.7667 681.026 79.3 681.826 76.9C682.693 74.5 683.46 72.3333 684.126 70.4C683.46 71.3333 682.593 72.4667 681.526 73.8C680.46 75.1333 679.393 76.4333 678.326 77.7C677.26 78.9 676.326 79.8667 675.526 80.6C673.86 82.2 672.06 83.5667 670.126 84.7C668.26 85.7667 666.326 86.3 664.326 86.3C663.66 86.3 663.093 86.1667 662.626 85.9C662.16 85.6333 661.926 85.1333 661.926 84.4C661.926 83.4667 662.16 82.3667 662.626 81.1C663.16 79.8333 663.726 78.5667 664.326 77.3C664.926 76.0333 665.426 75 665.826 74.2C666.626 72.6667 667.393 71.1333 668.126 69.6C668.86 68.0667 669.493 66.7667 670.026 65.7C670.56 64.7 670.826 64.0333 670.826 63.7C670.826 63.1667 670.426 63.1667 669.626 63.7C668.893 64.2333 668.193 64.7667 667.526 65.3C666.06 66.7 664.526 68.3667 662.926 70.3C661.326 72.1667 660.093 73.6667 659.226 74.8C659.026 75.0667 658.86 75.2 658.726 75.2C658.593 75.2 658.526 75.0333 658.526 74.7C658.526 74.1667 658.693 73.6667 659.026 73.2C659.96 71.8667 661.06 70.4 662.326 68.8C663.593 67.2 664.893 65.6667 666.226 64.2C667.493 62.8667 668.793 61.5667 670.126 60.3C671.46 59.0333 673.16 58.4 675.226 58.4C676.626 58.4 677.326 58.9333 677.326 60C677.326 60.9333 676.926 62 676.126 63.2C675.66 63.9333 674.926 65.1667 673.926 66.9C672.926 68.6333 671.893 70.5333 670.826 72.6C669.826 74.6 668.96 76.4667 668.226 78.2C667.493 79.9333 667.126 81.2 667.126 82C667.126 82.9333 667.593 83.4 668.526 83.4C669.26 83.4 670.16 83.0333 671.226 82.3C672.293 81.5 673.393 80.5667 674.526 79.5C676.46 77.6333 678.226 75.5667 679.826 73.3C681.493 71.0333 682.926 68.8667 684.126 66.8C684.326 66.4667 684.66 65.8667 685.126 65C685.66 64.1333 686.193 63.3 686.726 62.5C687.326 61.7 687.793 61.2333 688.126 61.1C688.46 60.9667 689.126 60.6 690.126 60C691.126 59.4 692.126 59 693.126 58.8C694.06 58.6 694.76 58.5 695.226 58.5C695.96 58.5 696.326 58.7 696.326 59.1C696.326 59.6333 696.026 59.9 695.426 59.9C694.693 59.9 694.026 60.1 693.426 60.5C692.826 60.8333 692.36 61.2667 692.026 61.8C691.426 62.6667 690.56 64.2333 689.426 66.5C688.36 68.7667 687.16 71.4 685.826 74.4C684.56 77.3333 683.293 80.3333 682.026 83.4C680.76 86.4 679.593 89.1667 678.526 91.7C676.926 95.5 675.093 99.2 673.026 102.8C670.96 106.467 668.526 109.733 665.726 112.6C662.993 115.533 659.726 117.833 655.926 119.5C653.66 120.5 651.16 121 648.426 121ZM697.301 86.8C694.835 86.8 693.101 86.3333 692.101 85.4C691.101 84.4667 690.601 83.2667 690.601 81.8C690.601 79.8667 691.235 77.7333 692.501 75.4C693.768 73 694.968 71 696.101 69.4C697.235 67.8667 698.501 66.4333 699.901 65.1C701.368 63.7 702.935 62.5 704.601 61.5C705.668 60.8333 707.101 60.1333 708.901 59.4C710.768 58.6 712.335 58.2 713.601 58.2C715.135 58.2 716.201 58.5667 716.801 59.3C717.401 59.9667 717.701 60.8 717.701 61.8C717.701 62.6 717.568 63.4333 717.301 64.3C717.035 65.1 716.735 65.8667 716.401 66.6C716.201 67 715.901 67.3 715.501 67.5C715.101 67.6333 714.901 67.5667 714.901 67.3C714.901 66.9667 714.935 66.6667 715.001 66.4C715.068 66.1333 715.101 65.8333 715.101 65.5C715.101 64.2333 714.801 63 714.201 61.8C713.668 60.5333 712.835 59.9 711.701 59.9C710.501 59.9 709.201 60.3333 707.801 61.2C706.401 62 705.435 62.7 704.901 63.3C703.168 65.1 701.468 67.3333 699.801 70C698.201 72.6667 697.035 75.2 696.301 77.6C695.835 79 695.601 80.2 695.601 81.2C695.601 82.3333 695.901 83.1333 696.501 83.6C697.101 84.0667 697.835 84.3 698.701 84.3C699.368 84.3 700.068 84.2 700.801 84C701.601 83.8 702.435 83.5667 703.301 83.3C705.301 82.6333 707.301 81.6 709.301 80.2C711.368 78.7333 713.235 77.2 714.901 75.6C716.568 73.9333 717.835 72.5 718.701 71.3C718.835 71.4333 718.901 71.6333 718.901 71.9C718.901 72.2333 718.768 72.6333 718.501 73.1C718.235 73.5 718.035 73.8333 717.901 74.1C716.501 75.9667 714.668 77.9 712.401 79.9C710.135 81.8333 707.668 83.4667 705.001 84.8C702.401 86.1333 699.835 86.8 697.301 86.8ZM723.529 86.2C721.529 86.2 720.163 85.7333 719.429 84.8C718.696 83.8 718.329 82.6 718.329 81.2C718.329 79.3333 718.729 77.3333 719.529 75.2C720.396 73.0667 721.096 71.4 721.629 70.2C720.763 71.1333 719.929 72.0333 719.129 72.9C718.329 73.7667 717.763 74.4 717.429 74.8C717.229 75.0667 717.063 75.2 716.929 75.2C716.796 75.2 716.729 75.0333 716.729 74.7C716.729 74.1667 716.896 73.6667 717.229 73.2C718.163 72 719.229 70.7333 720.429 69.4C721.629 68.0667 722.796 66.6667 723.929 65.2C725.263 62.7333 726.729 59.8667 728.329 56.6C729.996 53.2667 731.696 49.8667 733.429 46.4C735.229 42.8667 736.963 39.6333 738.629 36.7C740.363 33.7 741.896 31.3 743.229 29.5C744.363 29.0333 745.429 28.4333 746.429 27.7C747.496 26.9667 748.529 26.3 749.529 25.7C750.596 25.0333 751.696 24.7 752.829 24.7C753.563 24.7 754.096 24.9 754.429 25.3C754.829 25.7 755.096 26.1667 755.229 26.7C755.296 26.9 755.329 27.2667 755.329 27.8C755.329 29.3333 754.796 31.2 753.729 33.4C752.729 35.6 751.529 37.7667 750.129 39.9C748.796 41.9667 747.629 43.6667 746.629 45C743.963 48.7333 741.229 52.1333 738.429 55.2C735.629 58.2 733.096 60.7333 730.829 62.8C728.629 64.8 727.029 66.2667 726.029 67.2C725.563 68.0667 724.996 69.2333 724.329 70.7C723.729 72.1 723.196 73.6 722.729 75.2C722.263 76.7333 722.029 78.1667 722.029 79.5C722.029 80.6333 722.296 81.6 722.829 82.4C723.363 83.1333 724.263 83.5 725.529 83.5C725.729 83.5 725.929 83.5 726.129 83.5C726.329 83.5 726.563 83.4667 726.829 83.4C727.963 83.2 729.196 82.5667 730.529 81.5C731.863 80.4333 733.196 79.2 734.529 77.8C735.863 76.4 737.063 75.0667 738.129 73.8C738.596 73.2667 739.029 72.7667 739.429 72.3C739.829 71.7667 740.096 71.4 740.229 71.2C740.696 71.6667 740.663 72.2667 740.129 73C739.663 73.6667 739.263 74.2333 738.929 74.7C738.463 75.3 737.796 76.1333 736.929 77.2C736.063 78.2 735.063 79.3 733.929 80.5C732.663 81.7667 731.096 83.0333 729.229 84.3C727.363 85.5667 725.463 86.2 723.529 86.2ZM727.729 63.2C729.796 61.4667 732.396 59 735.529 55.8C738.729 52.5333 741.863 48.6 744.929 44C745.263 43.4667 745.796 42.5667 746.529 41.3C747.329 40.0333 748.129 38.6 748.929 37C749.796 35.3333 750.529 33.7333 751.129 32.2C751.729 30.6 752.029 29.2333 752.029 28.1C752.029 27.0333 751.729 26.5 751.129 26.5C750.396 26.5 749.429 27.1333 748.229 28.4C746.829 29.8667 745.229 32.0333 743.429 34.9C741.696 37.7 739.863 40.8333 737.929 44.3C735.996 47.7667 734.129 51.1667 732.329 54.5C730.596 57.8333 729.063 60.7333 727.729 63.2ZM744.016 86.8C741.283 86.8 739.383 86.2667 738.316 85.2C737.249 84.1333 736.716 82.8333 736.716 81.3C736.716 79.3667 737.216 77.3 738.216 75.1C739.283 72.9 740.283 71.0333 741.216 69.5C742.283 67.9 743.716 66.2333 745.516 64.5C747.316 62.7667 749.283 61.3 751.416 60.1C753.549 58.9 755.616 58.3 757.616 58.3C759.349 58.3 760.549 58.7333 761.216 59.6C761.883 60.4 762.216 61.3667 762.216 62.5C762.216 64.5667 761.583 66.2667 760.316 67.6C759.116 68.9333 757.616 70.0333 755.816 70.9C754.016 71.7 752.283 72.3667 750.616 72.9C749.616 73.1667 748.449 73.4333 747.116 73.7C745.783 73.9667 744.516 74.1 743.316 74.1C742.849 75.3 742.483 76.4667 742.216 77.6C741.949 78.7333 741.816 79.7667 741.816 80.7C741.816 81.8333 742.083 82.7667 742.616 83.5C743.216 84.2333 744.183 84.6 745.516 84.6C746.049 84.6 746.683 84.5333 747.416 84.4C748.149 84.2667 748.949 84.0667 749.816 83.8C751.816 83.1333 753.783 82.0667 755.716 80.6C757.649 79.1333 759.416 77.5667 761.016 75.9C762.683 74.1667 763.949 72.7333 764.816 71.6C765.016 71.8 765.116 72.0333 765.116 72.3C765.116 72.6333 764.883 73.1667 764.416 73.9C763.083 75.7667 761.349 77.7 759.216 79.7C757.083 81.7 754.716 83.4 752.116 84.8C749.516 86.1333 746.816 86.8 744.016 86.8ZM744.116 72.1C744.983 72.1667 745.949 72.1667 747.016 72.1C748.149 71.9667 749.249 71.7333 750.316 71.4C753.049 70.6 755.016 69.3333 756.216 67.6C757.483 65.8 758.116 64.2 758.116 62.8C758.116 62 757.949 61.3333 757.616 60.8C757.283 60.2667 756.749 60 756.016 60C754.083 60 752.349 60.7333 750.816 62.2C749.283 63.6 747.949 65.2333 746.816 67.1C745.683 68.9667 744.783 70.6333 744.116 72.1ZM805.513 40.2C805.113 40.4667 804.746 40.6667 804.413 40.8C804.146 40.9333 804.013 41 804.013 41L804.213 40.2C804.28 40 804.313 39.8333 804.313 39.7C804.38 39.5667 804.613 39.3667 805.013 39.1C806.146 38.1667 807.113 37.0667 807.913 35.8C808.78 34.5333 809.346 33.2 809.613 31.8C809.813 30.9333 809.646 30.1667 809.113 29.5C808.646 28.8333 807.98 28.4333 807.113 28.3L807.513 27.2C807.846 27.0667 808.313 26.8667 808.913 26.6C809.513 26.2667 809.946 26 810.213 25.8C810.546 25.6 810.846 25.3667 811.113 25.1C811.38 24.7667 811.58 24.6333 811.713 24.7C813.113 24.9 813.813 25.7667 813.813 27.3C813.813 27.5667 813.78 27.8333 813.713 28.1C813.713 28.3 813.68 28.5667 813.613 28.9C813.146 31.3 812.146 33.4667 810.613 35.4C809.08 37.2667 807.38 38.8667 805.513 40.2ZM795.213 40.2C794.813 40.4667 794.446 40.6667 794.113 40.8C793.846 40.9333 793.713 41 793.713 41L793.913 40.2C793.98 40 794.013 39.8333 794.013 39.7C794.08 39.5667 794.313 39.3667 794.713 39.1C795.846 38.1667 796.813 37.0667 797.613 35.8C798.48 34.5333 799.046 33.2 799.313 31.8C799.446 30.9333 799.28 30.1667 798.813 29.5C798.346 28.8333 797.68 28.4333 796.813 28.3L797.213 27.2C797.546 27.0667 798.013 26.8667 798.613 26.6C799.213 26.2667 799.646 26 799.913 25.8C800.18 25.6 800.446 25.3667 800.713 25.1C800.98 24.7667 801.213 24.6333 801.413 24.7C802.813 24.9 803.513 25.7667 803.513 27.3C803.513 27.5667 803.48 27.8333 803.413 28.1C803.413 28.3 803.38 28.5667 803.313 28.9C802.78 31.3 801.746 33.4667 800.213 35.4C798.746 37.2667 797.08 38.8667 795.213 40.2Z" fill="white"/>
</g>
<g filter="url(#filter1_f_896_63)">
<path d="M47.4902 44.1C46.7569 43.9667 46.2236 43.6667 45.8902 43.2C45.5569 42.6667 45.3902 42.0667 45.3902 41.4C45.3902 41.1333 45.3902 40.9 45.3902 40.7C45.4569 40.4333 45.5236 40.1667 45.5902 39.9C46.1236 37.4333 47.1569 35.2667 48.6902 33.4C50.2236 31.4667 51.9236 29.8667 53.7902 28.6C54.1236 28.3333 54.4236 28.1333 54.6902 28C55.0236 27.8667 55.1902 27.8 55.1902 27.8L54.9902 28.6C54.9236 28.7333 54.8569 28.8667 54.7902 29C54.7902 29.1333 54.5902 29.3667 54.1902 29.7C53.1236 30.6333 52.1569 31.7333 51.2902 33C50.4902 34.2 49.9236 35.5333 49.5902 37C49.4569 37.8 49.6236 38.5667 50.0902 39.3C50.5569 39.9667 51.2236 40.3667 52.0902 40.5L51.6902 41.6C51.3569 41.6667 50.8902 41.8667 50.2902 42.2C49.7569 42.4667 49.3236 42.7 48.9902 42.9C48.7236 43.1 48.4569 43.3667 48.1902 43.7C47.9236 43.9667 47.6902 44.1 47.4902 44.1ZM37.1902 44.1C35.7902 43.9 35.0902 43.0333 35.0902 41.5C35.0902 41.2333 35.0902 40.9667 35.0902 40.7C35.1569 40.4333 35.2236 40.1667 35.2902 39.9C35.8236 37.4333 36.8236 35.2667 38.2902 33.4C39.8236 31.4667 41.5236 29.8667 43.3902 28.6C43.7902 28.3333 44.1236 28.1333 44.3902 28C44.7236 27.8667 44.8902 27.8 44.8902 27.8L44.6902 28.6C44.6236 28.7333 44.5569 28.8667 44.4902 29C44.4902 29.1333 44.2902 29.3667 43.8902 29.7C42.8236 30.6333 41.8569 31.7333 40.9902 33C40.1902 34.2 39.6236 35.5333 39.2902 37C39.1569 37.8 39.3236 38.5667 39.7902 39.3C40.2569 39.9667 40.9236 40.3667 41.7902 40.5L41.3902 41.6C41.0569 41.6667 40.5902 41.8667 39.9902 42.2C39.3902 42.4667 38.9569 42.7 38.6902 42.9C38.4236 43.1 38.1569 43.3667 37.8902 43.7C37.6236 43.9667 37.3902 44.1 37.1902 44.1ZM95.077 90.2C92.4103 90.2 89.7436 89.9667 87.077 89.5C84.4103 89.1 81.977 88.3333 79.777 87.2C77.6436 86.0667 75.9103 84.4667 74.577 82.4C73.2436 80.3333 72.577 77.6667 72.577 74.4C72.577 71.6667 73.1103 68.5333 74.177 65C75.3103 61.4 76.977 57.8 79.177 54.2C81.377 50.5333 84.1103 47.1333 87.377 44C90.7103 40.8667 94.5436 38.3667 98.877 36.5C103.277 34.5667 108.21 33.6 113.677 33.6C121.677 33.6 127.51 34.9 131.177 37.5C134.844 40.0333 136.677 44 136.677 49.4C136.677 54.6667 135.577 59.7333 133.377 64.6C131.244 69.4667 128.244 73.8333 124.377 77.7C120.577 81.5667 116.177 84.6333 111.177 86.9C106.177 89.1 100.81 90.2 95.077 90.2ZM94.277 88.7C98.3436 88.7 102.21 87.9333 105.877 86.4C109.61 84.8 112.977 82.6667 115.977 80C119.044 77.2667 121.677 74.1667 123.877 70.7C126.144 67.2333 127.877 63.6 129.077 59.8C130.344 56 130.977 52.2333 130.977 48.5C130.977 44.3667 129.677 41.1 127.077 38.7C124.477 36.3 120.077 35.1 113.877 35.1C110.344 35.1 106.81 36 103.277 37.8C99.8103 39.5333 96.5436 41.8667 93.477 44.8C90.477 47.7333 87.777 50.9667 85.377 54.5C83.0436 58.0333 81.2103 61.6 79.877 65.2C78.5436 68.8 77.877 72.1667 77.877 75.3C77.877 79.5 79.1103 82.8 81.577 85.2C84.1103 87.5333 88.3436 88.7 94.277 88.7ZM135.252 90.5C134.985 90.5 134.985 90.2 135.252 89.6C135.585 89 135.885 88.3333 136.152 87.6C136.485 86.8667 136.819 86.0667 137.152 85.2C137.819 83.6 138.552 81.8 139.352 79.8C140.152 77.8 140.919 75.8667 141.652 74C142.385 72.0667 143.019 70.4333 143.552 69.1C144.152 67.7 144.552 66.8 144.752 66.4C143.819 67.4 142.685 68.6667 141.352 70.2C140.085 71.6667 138.885 73.1 137.752 74.5C136.619 75.9 135.752 77 135.152 77.8C134.952 78.0667 134.785 78.2 134.652 78.2C134.519 78.2 134.452 78.0333 134.452 77.7C134.452 77.1667 134.619 76.6667 134.952 76.2C136.219 74.6 137.619 72.8 139.152 70.8C140.752 68.8 142.185 66.9667 143.452 65.3C144.719 63.5667 145.519 62.4333 145.852 61.9C146.585 61.7667 147.652 61.5667 149.052 61.3C150.519 61.0333 151.519 60.6667 152.052 60.2C152.252 60 152.452 59.9 152.652 59.9C152.785 59.9 152.852 60.0333 152.852 60.3C152.919 60.5 152.852 60.7333 152.652 61C152.252 61.4667 151.552 62.5667 150.552 64.3C149.619 65.9667 148.585 67.8333 147.452 69.9C146.385 71.9667 145.385 73.8333 144.452 75.5C145.252 74.4333 146.119 73.4 147.052 72.4C147.985 71.4 148.885 70.4333 149.752 69.5C150.552 68.7 151.652 67.7 153.052 66.5C154.452 65.3 155.919 64.2 157.452 63.2C158.985 62.2 160.319 61.6333 161.452 61.5C161.719 61.4333 161.952 61.4 162.152 61.4C162.419 61.4 162.619 61.4 162.752 61.4C164.219 61.4 164.952 61.9333 164.952 63C164.952 63.8 164.519 64.8667 163.652 66.2C163.185 66.9333 162.452 68.1667 161.452 69.9C160.519 71.5667 159.552 73.4 158.552 75.4C157.619 77.3333 156.785 79.1667 156.052 80.9C155.385 82.5667 155.052 83.8 155.052 84.6C155.052 85.5333 155.519 86 156.452 86C157.585 86 158.819 85.4333 160.152 84.3C161.552 83.1667 163.052 81.7333 164.652 80C166.252 78.2 167.852 76.3 169.452 74.3C169.585 74.4333 169.652 74.6667 169.652 75C169.652 75.4667 169.485 75.9333 169.152 76.4C168.885 76.8 168.619 77.1667 168.352 77.5C167.685 78.3667 166.785 79.4667 165.652 80.8C164.585 82.0667 163.485 83.3333 162.352 84.6C161.219 85.8 160.185 86.7667 159.252 87.5C158.585 87.9667 157.719 88.4667 156.652 89C155.585 89.5333 154.519 89.8 153.452 89.8C152.252 89.8 151.419 89.5 150.952 88.9C150.485 88.2333 150.252 87.4333 150.252 86.5C150.252 85.4333 150.452 84.3 150.852 83.1C151.252 81.9 151.685 80.7667 152.152 79.7C152.685 78.5667 153.085 77.7333 153.352 77.2C154.552 74.8667 155.652 72.6667 156.652 70.6C157.652 68.5333 158.352 67.0667 158.752 66.2C158.952 65.8 159.052 65.4667 159.052 65.2C159.052 64.7333 158.685 64.7 157.952 65.1C157.219 65.5 156.319 66.1 155.252 66.9C154.252 67.7 153.319 68.5 152.452 69.3C151.585 70.0333 151.019 70.5333 150.752 70.8C148.285 73.4 146.119 76.3 144.252 79.5C142.452 82.6333 140.919 85.8667 139.652 89.2C138.785 89.2667 137.919 89.5 137.052 89.9C136.185 90.3 135.585 90.5 135.252 90.5ZM192.754 90C190.688 90 188.721 89.4333 186.854 88.3C184.988 87.1 183.588 85.3 182.654 82.9C182.321 82.0333 182.088 81.1333 181.954 80.2C181.821 79.2 181.754 78.2333 181.754 77.3C181.754 76.3667 181.921 75.9 182.254 75.9C182.654 75.9 182.854 76.1667 182.854 76.7C182.854 79.8333 183.621 82.2 185.154 83.8C186.754 85.4 188.721 86.2 191.054 86.2C193.388 86.2 195.621 85.5333 197.754 84.2C199.954 82.8667 201.988 81.1667 203.854 79.1C206.921 75.7667 209.521 72.4 211.654 69C213.788 65.5333 215.721 62 217.454 58.4C219.254 54.7333 221.054 50.9333 222.854 47C223.988 44.6 225.388 42.5 227.054 40.7C228.788 38.9 230.854 37.6667 233.254 37L233.354 36.9H227.854C225.521 36.9 223.054 37 220.454 37.2C217.854 37.4 215.488 37.8333 213.354 38.5C211.288 39.1667 209.788 40.1667 208.854 41.5C208.254 42.3667 207.954 43.3667 207.954 44.5C207.954 45.6333 208.254 46.7333 208.854 47.8C209.454 48.8667 210.221 49.6333 211.154 50.1C211.288 50.2333 211.354 50.3333 211.354 50.4C211.354 50.5333 211.188 50.7 210.854 50.9C210.588 51.0333 210.288 51.0667 209.954 51C209.421 50.6667 208.754 50.1333 207.954 49.4C207.154 48.6 206.421 47.7667 205.754 46.9C205.154 46.0333 204.754 45.3 204.554 44.7C204.288 43.9 204.154 43.1 204.154 42.3C204.154 40.7 204.721 39.4 205.854 38.4C207.054 37.4 208.588 36.6333 210.454 36.1C212.321 35.5667 214.321 35.2 216.454 35C218.654 34.7333 220.754 34.6 222.754 34.6C224.821 34.5333 226.588 34.5 228.054 34.5H238.854C238.988 34.5 239.054 34.5333 239.054 34.6C239.054 34.8 238.821 35.1 238.354 35.5C237.954 35.8333 237.688 36 237.554 36C235.888 36.3333 234.654 37.2333 233.854 38.7C233.054 40.1 232.688 42.3667 232.754 45.5C232.754 45.5 232.754 46.2333 232.754 47.7C232.821 49.1667 232.888 51.0667 232.954 53.4C233.021 55.7333 233.088 58.2333 233.154 60.9C233.221 63.5667 233.288 66.1333 233.354 68.6C233.421 71.0667 233.488 73.1333 233.554 74.8V75.4L268.254 38.8C270.454 36.4667 272.621 34.5 274.754 32.9C276.954 31.2333 279.221 30.5 281.554 30.7C281.621 30.7 281.654 30.7333 281.654 30.8C281.721 30.8 281.754 30.8 281.754 30.8C281.754 31 281.621 31.2333 281.354 31.5C281.088 31.7667 280.788 31.9333 280.454 32C278.721 31.9333 277.154 32.6 275.754 34C274.354 35.4 273.054 37.0667 271.854 39C271.254 40 270.354 41.6 269.154 43.8C267.954 45.9333 266.588 48.4667 265.054 51.4C263.588 54.3333 262.088 57.4333 260.554 60.7C259.021 63.9667 257.588 67.1667 256.254 70.3C254.988 73.4333 253.954 76.3 253.154 78.9C252.354 81.4333 251.954 83.5 251.954 85.1C251.954 86.9667 252.588 87.9 253.854 87.9C254.388 87.9 254.954 87.7667 255.554 87.5C256.421 87.1667 257.388 86.6667 258.454 86C259.521 85.3333 260.488 84.5667 261.354 83.7C263.088 82.0333 264.621 80.3333 265.954 78.6C267.288 76.8 268.088 75.7667 268.354 75.5C268.554 75.2333 268.721 75.1 268.854 75.1C269.121 75.1 269.254 75.3 269.254 75.7C269.254 76.1 269.121 76.4667 268.854 76.8C268.321 77.4667 267.421 78.6333 266.154 80.3C264.888 81.9 263.388 83.5333 261.654 85.2C259.988 86.8667 258.188 88.1333 256.254 89C255.654 89.2667 255.021 89.4667 254.354 89.6C253.688 89.8 253.021 89.9 252.354 89.9C250.888 89.9 249.554 89.4667 248.354 88.6C247.221 87.6667 246.654 86.1333 246.654 84C246.654 81.9333 247.121 79.6 248.054 77C249.054 74.3333 250.154 71.7667 251.354 69.3C252.621 66.7667 253.654 64.6333 254.454 62.9C255.321 61.1 256.421 58.8 257.754 56C259.088 53.2 260.621 50.3667 262.354 47.5L233.554 77.9C233.488 78.4333 233.254 78.9667 232.854 79.5C232.454 79.9667 231.821 80.3667 230.954 80.7C230.488 80.9 229.854 81.4333 229.054 82.3C228.254 83.1667 227.721 83.7667 227.454 84.1C227.454 84.1667 227.354 84.2 227.154 84.2C226.954 84.2 226.754 84.1333 226.554 84C226.354 83.8667 226.288 83.7667 226.354 83.7C228.088 81.5 228.988 78.4667 229.054 74.6L229.154 72.2C229.288 69.4 229.388 66.4667 229.454 63.4C229.521 60.2667 229.554 57.3667 229.554 54.7C229.621 51.9667 229.654 49.7667 229.654 48.1C229.654 46.3667 229.654 45.5 229.654 45.5C229.654 43.9 229.888 42.5 230.354 41.3C230.821 40.1 231.388 39.0667 232.054 38.2C230.921 39.0667 229.821 40.1 228.754 41.3C227.688 42.5 226.788 43.8333 226.054 45.3C225.054 47.3667 223.921 50.0333 222.654 53.3C221.388 56.5667 219.921 60.0333 218.254 63.7C216.654 67.3667 214.854 70.9667 212.854 74.5C210.921 77.9667 208.754 80.9667 206.354 83.5C204.688 85.3 202.554 86.8333 199.954 88.1C197.421 89.3667 195.021 90 192.754 90ZM257.262 124C254.729 124 252.295 123.4 249.962 122.2C247.562 121.067 245.795 119.3 244.662 116.9C244.262 116.033 243.995 115.1 243.862 114.1C243.729 113.167 243.662 112.233 243.662 111.3V110.2C243.662 109.667 243.729 109.167 243.862 108.7C243.995 108.3 244.329 108.1 244.862 108.1C244.995 108.1 245.062 108.167 245.062 108.3C245.062 108.7 245.029 109.1 244.962 109.5C244.895 109.9 244.862 110.333 244.862 110.8C244.862 113.867 245.862 116.2 247.862 117.8C249.795 119.4 252.229 120.2 255.162 120.2C256.362 120.2 257.595 120.067 258.862 119.8C260.129 119.533 261.329 119.167 262.462 118.7C266.662 116.9 270.295 114.333 273.362 111C276.495 107.733 279.229 104.033 281.562 99.9C283.895 95.7667 285.995 91.5667 287.862 87.3C288.929 84.7667 289.862 82.3 290.662 79.9C291.529 77.5 292.295 75.3333 292.962 73.4C292.295 74.3333 291.429 75.4667 290.362 76.8C289.295 78.1333 288.229 79.4333 287.162 80.7C286.095 81.9 285.162 82.8667 284.362 83.6C282.695 85.2 280.895 86.5667 278.962 87.7C277.095 88.7667 275.162 89.3 273.162 89.3C272.495 89.3 271.929 89.1667 271.462 88.9C270.995 88.6333 270.762 88.1333 270.762 87.4C270.762 86.4667 270.995 85.3667 271.462 84.1C271.995 82.8333 272.562 81.5667 273.162 80.3C273.762 79.0333 274.262 78 274.662 77.2C275.462 75.6667 276.229 74.1333 276.962 72.6C277.695 71.0667 278.329 69.7667 278.862 68.7C279.395 67.7 279.662 67.0333 279.662 66.7C279.662 66.1667 279.262 66.1667 278.462 66.7C277.729 67.2333 277.029 67.7667 276.362 68.3C274.895 69.7 273.362 71.3667 271.762 73.3C270.162 75.1667 268.929 76.6667 268.062 77.8C267.862 78.0667 267.695 78.2 267.562 78.2C267.429 78.2 267.362 78.0333 267.362 77.7C267.362 77.1667 267.529 76.6667 267.862 76.2C268.795 74.8667 269.895 73.4 271.162 71.8C272.429 70.2 273.729 68.6667 275.062 67.2C276.329 65.8667 277.629 64.5667 278.962 63.3C280.295 62.0333 281.995 61.4 284.062 61.4C285.462 61.4 286.162 61.9333 286.162 63C286.162 63.9333 285.762 65 284.962 66.2C284.495 66.9333 283.762 68.1667 282.762 69.9C281.762 71.6333 280.729 73.5333 279.662 75.6C278.662 77.6 277.795 79.4667 277.062 81.2C276.329 82.9333 275.962 84.2 275.962 85C275.962 85.9333 276.429 86.4 277.362 86.4C278.095 86.4 278.995 86.0333 280.062 85.3C281.129 84.5 282.229 83.5667 283.362 82.5C285.295 80.6333 287.062 78.5667 288.662 76.3C290.329 74.0333 291.762 71.8667 292.962 69.8C293.162 69.4667 293.495 68.8667 293.962 68C294.495 67.1333 295.029 66.3 295.562 65.5C296.162 64.7 296.629 64.2333 296.962 64.1C297.295 63.9667 297.962 63.6 298.962 63C299.962 62.4 300.962 62 301.962 61.8C302.895 61.6 303.595 61.5 304.062 61.5C304.795 61.5 305.162 61.7 305.162 62.1C305.162 62.6333 304.862 62.9 304.262 62.9C303.529 62.9 302.862 63.1 302.262 63.5C301.662 63.8333 301.195 64.2667 300.862 64.8C300.262 65.6667 299.395 67.2333 298.262 69.5C297.195 71.7667 295.995 74.4 294.662 77.4C293.395 80.3333 292.129 83.3333 290.862 86.4C289.595 89.4 288.429 92.1667 287.362 94.7C285.762 98.5 283.929 102.2 281.862 105.8C279.795 109.467 277.362 112.733 274.562 115.6C271.829 118.533 268.562 120.833 264.762 122.5C262.495 123.5 259.995 124 257.262 124ZM343.132 93.9C342.598 93.9 342.165 93.8 341.832 93.6C341.498 93.4667 341.365 93.1333 341.432 92.6C341.432 92.4 341.532 92.1 341.732 91.7C341.932 91.3 342.065 91 342.132 90.8C342.465 89.8667 342.765 88.9333 343.032 88C343.298 87 343.565 86.0667 343.832 85.2C344.765 81.5333 345.632 77.9 346.432 74.3C347.232 70.6333 347.865 66.9667 348.332 63.3C348.465 62.3667 348.565 61.3 348.632 60.1C348.698 58.8333 348.732 57.5 348.732 56.1C348.732 52.9 348.398 49.5 347.732 45.9C347.065 42.3 345.765 39.3667 343.832 37.1H336.232C335.232 37.1 333.832 37.1667 332.032 37.3C330.298 37.4333 328.498 37.7333 326.632 38.2C324.832 38.6667 323.332 39.4333 322.132 40.5C320.932 41.5667 320.398 43 320.532 44.8C320.598 45.3333 320.798 46.0667 321.132 47C321.465 47.8667 321.698 48.4 321.832 48.6L320.732 49.4C320.332 48.6667 319.832 47.8333 319.232 46.9C318.632 45.9 318.098 44.9333 317.632 44C317.165 43.0667 316.898 42.3667 316.832 41.9C316.765 41.2333 316.798 40.3667 316.932 39.3C317.065 38.2333 317.598 37.3 318.532 36.5C319.532 35.6333 320.898 35.0667 322.632 34.8C324.432 34.5333 326.265 34.4 328.132 34.4C329.932 34.4 331.665 34.4667 333.332 34.6C334.998 34.7333 336.365 34.8 337.432 34.8C337.432 34.8 338.198 34.8 339.732 34.8C341.265 34.8 343.198 34.8 345.532 34.8C347.932 34.7333 350.465 34.7 353.132 34.7C355.798 34.7 358.232 34.7 360.432 34.7L358.332 37.3C356.332 37.3 354.332 37.3 352.332 37.3C350.398 37.2333 348.432 37.2 346.432 37.2C348.565 38.6 350.132 40.4333 351.132 42.7C352.198 44.9667 352.898 47.3333 353.232 49.8C353.565 52.2667 353.732 54.5667 353.732 56.7C353.732 57.5667 353.698 58.4 353.632 59.2C353.632 60 353.632 60.7 353.632 61.3C353.498 64.4333 353.065 68.2 352.332 72.6C351.598 77 350.665 81.1667 349.532 85.1C351.732 82.0333 354.198 78.4 356.932 74.2C359.732 69.9333 362.865 65.4667 366.332 60.8C369.865 56.0667 373.698 51.5 377.832 47.1C379.498 45.3667 381.265 43.6 383.132 41.8C384.998 40 386.998 38.5 389.132 37.3C391.265 36.1 393.565 35.5 396.032 35.5C398.165 35.5 399.798 35.8333 400.932 36.5L400.332 37.6C400.065 37.5333 399.798 37.5 399.532 37.5C399.332 37.4333 399.065 37.4 398.732 37.4C396.865 37.4 394.865 37.9667 392.732 39.1C390.665 40.2333 389.065 41.3667 387.932 42.5C385.865 44.5667 384.265 47.0333 383.132 49.9C381.998 52.7 381.165 55.7 380.632 58.9C380.165 62.0333 379.798 65.2333 379.532 68.5C379.265 71.7 378.998 74.7333 378.732 77.6C378.532 80.4667 378.132 82.9667 377.532 85.1C380.265 81.2333 383.632 76.6333 387.632 71.3C391.698 65.9667 396.332 60.4333 401.532 54.7C406.732 48.9 412.432 43.4 418.632 38.2C419.898 37.1333 421.532 35.9333 423.532 34.6C425.598 33.2667 427.765 32.1333 430.032 31.2C432.365 30.2 434.565 29.7 436.632 29.7C438.565 29.7 439.898 30.0333 440.632 30.7C441.432 31.3667 441.832 32.2333 441.832 33.3C441.832 34.5667 441.432 35.9667 440.632 37.5C439.898 39.0333 439.332 40.3 438.932 41.3C438.865 41.5 438.565 41.6333 438.032 41.7C437.498 41.7667 437.265 41.6667 437.332 41.4C437.465 40.8667 437.598 40.2333 437.732 39.5C437.932 38.7 438.032 37.9 438.032 37.1C438.032 36.0333 437.832 35.0667 437.432 34.2C437.032 33.3333 436.265 32.8333 435.132 32.7C434.932 32.6333 434.732 32.6 434.532 32.6C434.332 32.6 434.132 32.6 433.932 32.6C432.065 32.6 430.032 33.2667 427.832 34.6C425.632 35.8667 423.098 37.6667 420.232 40C414.632 44.4667 409.265 49.4 404.132 54.8C398.998 60.1333 394.132 65.7333 389.532 71.6C387.132 74.6 384.798 77.6333 382.532 80.7C380.265 83.7667 378.165 86.9667 376.232 90.3C376.098 90.5667 375.965 90.8667 375.832 91.2C375.765 91.6 375.665 91.9 375.532 92.1C375.398 92.2333 374.998 92.4333 374.332 92.7C373.665 93.0333 372.998 93.3 372.332 93.5C371.732 93.7667 371.332 93.9 371.132 93.9C370.598 93.9 370.165 93.8 369.832 93.6C369.498 93.4667 369.365 93.1333 369.432 92.6C369.432 92.4 369.532 92.1 369.732 91.7C369.932 91.3 370.065 91 370.132 90.8C370.465 89.8667 370.765 88.9333 371.032 88C371.298 87 371.565 86.0667 371.832 85.2C372.632 82.2667 373.198 79.1667 373.532 75.9C373.932 72.6333 374.298 69.3667 374.632 66.1C375.032 62.7667 375.632 59.5667 376.432 56.5C377.232 53.4333 378.465 50.6667 380.132 48.2C378.798 49 376.898 50.9667 374.432 54.1C371.965 57.1667 368.965 60.9 365.432 65.3C364.232 66.7667 362.898 68.6 361.432 70.8C359.965 72.9333 358.465 75.2 356.932 77.6C355.465 79.9333 354.032 82.2333 352.632 84.5C351.298 86.7 350.165 88.6333 349.232 90.3C349.098 90.5667 348.965 90.8667 348.832 91.2C348.765 91.6 348.665 91.9 348.532 92.1C348.398 92.2333 347.898 92.4333 347.032 92.7C346.232 93.0333 345.432 93.3 344.632 93.5C343.832 93.7667 343.332 93.9 343.132 93.9ZM421.592 89.3C420.925 89.3 420.358 89.1667 419.892 88.9C419.425 88.6333 419.192 88.1333 419.192 87.4C419.192 86.4667 419.425 85.4 419.892 84.2C420.358 83 420.892 81.8333 421.492 80.7C422.092 79.5 422.625 78.5333 423.092 77.8C420.758 80.2667 418.325 82.6 415.792 84.8C414.525 85.8667 413.125 86.8667 411.592 87.8C410.058 88.7333 408.425 89.2 406.692 89.2C406.025 89.2 405.558 89 405.292 88.6C405.025 88.1333 404.892 87.6 404.892 87C404.892 86.6667 404.925 86.4333 404.992 86.3C405.325 83.7 406.158 81 407.492 78.2C408.825 75.4 410.458 72.7667 412.392 70.3C414.325 67.8333 416.292 65.8333 418.292 64.3C420.558 62.5667 423.058 61.7 425.792 61.7H437.292C437.625 61.7 437.792 61.8333 437.792 62.1C437.792 62.6333 437.492 62.9 436.892 62.9C436.225 62.9 435.558 63.3333 434.892 64.2C434.225 65 433.725 65.6667 433.392 66.2C432.925 66.9333 432.192 68.1667 431.192 69.9C430.192 71.6333 429.158 73.5333 428.092 75.6C427.092 77.6 426.225 79.4667 425.492 81.2C424.758 82.9333 424.392 84.2 424.392 85C424.392 85.9333 424.858 86.4 425.792 86.4C426.792 86.4 427.925 85.9333 429.192 85C430.458 84.0667 431.725 82.9333 432.992 81.6C434.325 80.2 435.525 78.8333 436.592 77.5C437.725 76.1 438.625 75 439.292 74.2C439.692 74.6 439.658 75.1667 439.192 75.9C438.792 76.5667 438.425 77.1 438.092 77.5C436.758 79.2333 435.225 81.0333 433.492 82.9C431.758 84.7 429.858 86.2333 427.792 87.5C425.792 88.7 423.725 89.3 421.592 89.3ZM410.792 85.8C411.592 85.8 412.692 85.2333 414.092 84.1C415.558 82.9 417.125 81.4333 418.792 79.7C420.458 77.9 422.025 76.0333 423.492 74.1C424.958 72.1 426.158 70.3 427.092 68.7C428.092 67.0333 428.592 65.7667 428.592 64.9C428.592 64.1667 428.358 63.6667 427.892 63.4C427.492 63.1333 426.958 63 426.292 63C425.225 63 424.058 63.4 422.792 64.2C421.592 64.9333 420.625 65.6667 419.892 66.4C419.092 67.1333 418.125 68.3 416.992 69.9C415.925 71.4333 414.858 73.1333 413.792 75C412.725 76.8667 411.825 78.6667 411.092 80.4C410.358 82.1333 409.992 83.5333 409.992 84.6C409.992 85.4 410.258 85.8 410.792 85.8ZM427.086 124C424.553 124 422.12 123.4 419.786 122.2C417.386 121.067 415.62 119.3 414.486 116.9C414.086 116.033 413.82 115.1 413.686 114.1C413.553 113.167 413.486 112.233 413.486 111.3V110.2C413.486 109.667 413.553 109.167 413.686 108.7C413.82 108.3 414.153 108.1 414.686 108.1C414.82 108.1 414.886 108.167 414.886 108.3C414.886 108.7 414.853 109.1 414.786 109.5C414.72 109.9 414.686 110.333 414.686 110.8C414.686 113.867 415.686 116.2 417.686 117.8C419.62 119.4 422.053 120.2 424.986 120.2C426.186 120.2 427.42 120.067 428.686 119.8C429.953 119.533 431.153 119.167 432.286 118.7C436.486 116.9 440.12 114.333 443.186 111C446.32 107.733 449.053 104.033 451.386 99.9C453.72 95.7667 455.82 91.5667 457.686 87.3C458.753 84.7667 459.686 82.3 460.486 79.9C461.353 77.5 462.12 75.3333 462.786 73.4C462.12 74.3333 461.253 75.4667 460.186 76.8C459.12 78.1333 458.053 79.4333 456.986 80.7C455.92 81.9 454.986 82.8667 454.186 83.6C452.52 85.2 450.72 86.5667 448.786 87.7C446.92 88.7667 444.986 89.3 442.986 89.3C442.32 89.3 441.753 89.1667 441.286 88.9C440.82 88.6333 440.586 88.1333 440.586 87.4C440.586 86.4667 440.82 85.3667 441.286 84.1C441.82 82.8333 442.386 81.5667 442.986 80.3C443.586 79.0333 444.086 78 444.486 77.2C445.286 75.6667 446.053 74.1333 446.786 72.6C447.52 71.0667 448.153 69.7667 448.686 68.7C449.22 67.7 449.486 67.0333 449.486 66.7C449.486 66.1667 449.086 66.1667 448.286 66.7C447.553 67.2333 446.853 67.7667 446.186 68.3C444.72 69.7 443.186 71.3667 441.586 73.3C439.986 75.1667 438.753 76.6667 437.886 77.8C437.686 78.0667 437.52 78.2 437.386 78.2C437.253 78.2 437.186 78.0333 437.186 77.7C437.186 77.1667 437.353 76.6667 437.686 76.2C438.62 74.8667 439.72 73.4 440.986 71.8C442.253 70.2 443.553 68.6667 444.886 67.2C446.153 65.8667 447.453 64.5667 448.786 63.3C450.12 62.0333 451.82 61.4 453.886 61.4C455.286 61.4 455.986 61.9333 455.986 63C455.986 63.9333 455.586 65 454.786 66.2C454.32 66.9333 453.586 68.1667 452.586 69.9C451.586 71.6333 450.553 73.5333 449.486 75.6C448.486 77.6 447.62 79.4667 446.886 81.2C446.153 82.9333 445.786 84.2 445.786 85C445.786 85.9333 446.253 86.4 447.186 86.4C447.92 86.4 448.82 86.0333 449.886 85.3C450.953 84.5 452.053 83.5667 453.186 82.5C455.12 80.6333 456.886 78.5667 458.486 76.3C460.153 74.0333 461.586 71.8667 462.786 69.8C462.986 69.4667 463.32 68.8667 463.786 68C464.32 67.1333 464.853 66.3 465.386 65.5C465.986 64.7 466.453 64.2333 466.786 64.1C467.12 63.9667 467.786 63.6 468.786 63C469.786 62.4 470.786 62 471.786 61.8C472.72 61.6 473.42 61.5 473.886 61.5C474.62 61.5 474.986 61.7 474.986 62.1C474.986 62.6333 474.686 62.9 474.086 62.9C473.353 62.9 472.686 63.1 472.086 63.5C471.486 63.8333 471.02 64.2667 470.686 64.8C470.086 65.6667 469.22 67.2333 468.086 69.5C467.02 71.7667 465.82 74.4 464.486 77.4C463.22 80.3333 461.953 83.3333 460.686 86.4C459.42 89.4 458.253 92.1667 457.186 94.7C455.586 98.5 453.753 102.2 451.686 105.8C449.62 109.467 447.186 112.733 444.386 115.6C441.653 118.533 438.386 120.833 434.586 122.5C432.32 123.5 429.82 124 427.086 124ZM492.656 89.3C491.989 89.3 491.423 89.1667 490.956 88.9C490.489 88.6333 490.256 88.1333 490.256 87.4C490.256 86.4667 490.489 85.3667 490.956 84.1C491.489 82.8333 492.056 81.5667 492.656 80.3C493.256 79.0333 493.756 78 494.156 77.2C494.489 76.6 494.923 75.6667 495.456 74.4C496.056 73.0667 496.656 71.7 497.256 70.3C497.923 68.8333 498.456 67.6 498.856 66.6C499.323 65.6 499.556 65.1 499.556 65.1C498.956 65.7667 498.156 66.7 497.156 67.9C496.223 69.1 495.189 70.3667 494.056 71.7C492.989 72.9667 491.989 74.1667 491.056 75.3C490.189 76.4333 489.556 77.2667 489.156 77.8C488.956 78.0667 488.789 78.2 488.656 78.2C488.523 78.2 488.456 78.0333 488.456 77.7C488.456 77.1667 488.623 76.6667 488.956 76.2C489.756 75.2 490.723 74 491.856 72.6C492.989 71.1333 494.123 69.6667 495.256 68.2C496.456 66.7333 497.489 65.4333 498.356 64.3C497.823 64.3 497.123 64.3333 496.256 64.4C495.456 64.4667 494.723 64.5667 494.056 64.7C493.389 64.7667 493.023 64.8 492.956 64.8C492.623 64.8 492.656 64.5333 493.056 64C493.456 63.4667 493.989 62.9333 494.656 62.4C495.323 61.8667 495.823 61.6 496.156 61.6C496.223 61.6 496.756 61.6333 497.756 61.7C498.756 61.7 499.489 61.7 499.956 61.7C501.289 59.9 502.589 57.8333 503.856 55.5C505.189 53.1667 506.489 50.6 507.756 47.8C508.289 47.7333 509.189 47.3667 510.456 46.7C511.789 45.9667 512.823 45.2333 513.556 44.5C513.889 44.1667 514.156 44 514.356 44C514.756 44 514.756 44.2667 514.356 44.8C513.889 45.3333 513.089 46.4667 511.956 48.2C510.823 49.8667 509.556 51.9 508.156 54.3C506.756 56.6333 505.423 59.1 504.156 61.7H512.256C512.989 61.7 513.356 61.8 513.356 62C513.356 62.2667 512.856 62.5333 511.856 62.8C510.723 63.1333 509.523 63.3333 508.256 63.4C507.056 63.4667 505.923 63.6 504.856 63.8C503.856 64 503.123 64.4333 502.656 65.1C502.256 65.5667 501.689 66.5667 500.956 68.1C500.223 69.6333 499.423 71.4 498.556 73.4C497.756 75.3333 497.056 77.3 496.456 79.3C495.856 81.2333 495.489 82.8667 495.356 84.2V84.6C495.356 85.1333 495.523 85.5667 495.856 85.9C496.189 86.2333 496.523 86.4 496.856 86.4C497.723 86.4 498.823 85.8667 500.156 84.8C501.556 83.7333 502.989 82.4667 504.456 81C505.923 79.4667 507.189 78.0667 508.256 76.8C508.723 76.2667 509.123 75.7667 509.456 75.3C509.856 74.8333 510.089 74.5333 510.156 74.4C510.289 74.6667 510.356 74.8667 510.356 75C510.356 75.4 510.223 75.8333 509.956 76.3C509.756 76.7667 509.523 77.1667 509.256 77.5C507.989 79.1667 506.456 80.9333 504.656 82.8C502.856 84.6 500.923 86.1333 498.856 87.4C496.856 88.6667 494.789 89.3 492.656 89.3ZM510.08 89.2C509.013 89.2 508.047 89 507.18 88.6C506.38 88.1333 505.98 87.1667 505.98 85.7C505.98 83.3667 506.58 81.0333 507.78 78.7C508.98 76.3 510.213 74.2 511.48 72.4C512.613 70.8667 513.88 69.4333 515.28 68.1C516.747 66.7 518.313 65.5 519.98 64.5C521.047 63.8333 522.48 63.1333 524.28 62.4C526.147 61.6 527.713 61.2 528.98 61.2C530.047 61.2 530.98 61.5 531.78 62.1C532.58 62.6333 532.98 63.6333 532.98 65.1C532.98 67.3667 532.38 69.7 531.18 72.1C530.047 74.4333 528.847 76.5 527.58 78.3C526.98 79.1 526.38 79.8667 525.78 80.6C525.18 81.2667 524.513 81.9667 523.78 82.7C526.247 82.7 528.513 82 530.58 80.6C532.647 79.1333 534.447 77.3667 535.98 75.3L536.18 75.1C536.38 75.1 536.48 75.3 536.48 75.7C536.48 76.1667 536.347 76.6 536.08 77C534.747 78.8667 533.08 80.5333 531.08 82C529.08 83.4 526.813 84.1 524.28 84.1C524.013 84.1 523.747 84.1 523.48 84.1C523.213 84.1 522.947 84.0667 522.68 84C518.947 87.4667 514.747 89.2 510.08 89.2ZM512.68 87.5C513.613 87.5 514.613 87.1667 515.68 86.5C516.813 85.8333 517.68 85.2 518.28 84.6C519.413 83.4667 520.447 82.2667 521.38 81C522.313 79.6667 523.18 78.3333 523.98 77C524.913 75.4 525.847 73.5 526.78 71.3C527.713 69.1 528.18 67.0333 528.18 65.1C528.18 63.5667 527.647 62.8 526.58 62.8C525.713 62.8 524.647 63.1667 523.38 63.9C522.18 64.6333 521.28 65.3 520.68 65.9C518.413 68.2333 516.513 70.7667 514.98 73.5C514.113 75.0333 513.18 76.8333 512.18 78.9C511.18 80.9667 510.68 82.8667 510.68 84.6C510.68 84.8667 510.68 85.1333 510.68 85.4C510.747 85.6 510.813 85.8333 510.88 86.1C511.147 87.0333 511.747 87.5 512.68 87.5ZM595.639 91.3C593.973 91.3 592.273 90.7667 590.539 89.7C588.873 88.7 587.173 87.0667 585.439 84.8C583.306 81.8667 581.506 79.0667 580.039 76.4C578.573 73.7333 577.373 71.4 576.439 69.4C575.573 67.4 574.906 65.9667 574.439 65.1C574.439 65.1 574.606 64.9 574.939 64.5C575.273 64.0333 575.673 63.6 576.139 63.2C576.673 62.7333 577.106 62.5 577.439 62.5C580.573 62.5 583.373 62.4667 585.839 62.4C588.373 62.2667 590.606 61.8667 592.539 61.2C594.539 60.4667 596.306 59.2333 597.839 57.5C599.373 55.7667 600.673 53.3 601.739 50.1C602.073 49.3 602.273 48.5 602.339 47.7C602.473 46.8333 602.539 46 602.539 45.2C602.539 42.9333 601.973 40.9333 600.839 39.2C599.706 37.4667 598.073 36.4667 595.939 36.2C595.673 36.1333 595.373 36.1 595.039 36.1C594.706 36.1 594.373 36.1 594.039 36.1C592.773 36.1 591.373 36.2667 589.839 36.6C588.373 36.9333 587.273 37.5667 586.539 38.5C584.873 40.7 583.273 43.2 581.739 46C580.206 48.7333 578.739 51.5333 577.339 54.4C575.939 57.2 574.606 59.8333 573.339 62.3C573.006 62.9667 572.373 64.1667 571.439 65.9C570.506 67.5667 569.473 69.5 568.339 71.7C567.206 73.8333 566.139 75.9667 565.139 78.1C564.139 80.2333 563.339 82.1333 562.739 83.8C562.206 85.4667 562.073 86.6 562.339 87.2C562.406 87.2667 562.439 87.3667 562.439 87.5C562.439 87.7 562.339 87.8 562.139 87.8C561.606 87.8 561.073 87.6667 560.539 87.4C560.006 87.1333 559.373 87 558.639 87C557.973 87 557.306 87.1667 556.639 87.5C555.973 87.7667 555.106 88.2667 554.039 89C552.973 89.7333 551.773 90.3333 550.439 90.8C550.306 90.8667 550.106 90.9 549.839 90.9C549.373 90.9 549.006 90.7667 548.739 90.5C548.473 90.3 548.473 90.1333 548.739 90C550.206 89.7333 551.473 89.2 552.539 88.4C553.606 87.5333 554.473 86.4667 555.139 85.2C556.539 82.8667 557.906 80.5333 559.239 78.2C560.639 75.8 561.973 73.4 563.239 71C564.773 68.0667 566.339 65.1333 567.939 62.2C569.539 59.2 571.139 56.2333 572.739 53.3C574.273 50.5667 575.639 47.9333 576.839 45.4C578.039 42.8667 578.939 41.0333 579.539 39.9C580.006 39.0333 580.806 38.2667 581.939 37.6C583.139 36.8667 584.306 36.3 585.439 35.9C585.039 35.9 584.639 35.9 584.239 35.9C583.839 35.8333 583.406 35.8 582.939 35.8C580.873 35.8 578.606 35.9333 576.139 36.2C573.739 36.4 571.373 36.7333 569.039 37.2C566.773 37.6667 564.773 38.3 563.039 39.1C561.306 39.9 560.139 40.8667 559.539 42C559.273 42.6 559.039 43.2 558.839 43.8C558.639 44.4 558.539 45 558.539 45.6C558.539 47.1333 559.073 48.2333 560.139 48.9C560.206 48.9 560.239 48.9667 560.239 49.1C560.239 49.2333 560.106 49.3667 559.839 49.5C559.639 49.6333 559.473 49.6667 559.339 49.6C558.673 49.2667 557.906 48.4667 557.039 47.2C556.239 45.8667 555.706 44.7667 555.439 43.9C555.239 43.1 555.139 42.3667 555.139 41.7C555.139 39.9667 555.706 38.6333 556.839 37.7C557.973 36.7 559.406 36 561.139 35.6C562.873 35.1333 564.639 34.8667 566.439 34.8C568.306 34.6667 569.939 34.6 571.339 34.6C573.473 34.6 576.006 34.6 578.939 34.6C581.873 34.5333 584.573 34.5 587.039 34.5C587.639 34.5 588.306 34.5 589.039 34.5C589.773 34.4333 590.539 34.4 591.339 34.4C593.139 34.4 595.006 34.5 596.939 34.7C598.873 34.9 600.639 35.3333 602.239 36C603.839 36.6667 605.073 37.7 605.939 39.1C607.073 40.9667 607.639 43.1 607.639 45.5C607.639 49.1667 606.673 52.2333 604.739 54.7C604.073 55.5667 603.339 56.4 602.539 57.2C601.739 58 600.806 58.7667 599.739 59.5C598.006 60.7 595.939 61.7333 593.539 62.6C591.139 63.4 588.639 64 586.039 64.4C583.506 64.8 581.173 65.0667 579.039 65.2C579.906 67.0667 581.206 69.5667 582.939 72.7C584.739 75.8333 586.906 78.9667 589.439 82.1C590.773 83.7667 592.139 84.9333 593.539 85.6C594.939 86.2667 596.306 86.6 597.639 86.6C599.773 86.6 601.773 85.9667 603.639 84.7C605.573 83.4333 607.306 81.9667 608.839 80.3C610.439 78.5667 611.706 77.0667 612.639 75.8C612.839 75.4667 613.006 75.3 613.139 75.3C613.339 75.3 613.439 75.5 613.439 75.9C613.439 76.4333 613.239 76.9667 612.839 77.5C609.773 81.7 606.839 85.0667 604.039 87.6C601.239 90.0667 598.439 91.3 595.639 91.3ZM617.696 89.8C614.962 89.8 613.062 89.2667 611.996 88.2C610.929 87.1333 610.396 85.8333 610.396 84.3C610.396 82.3667 610.896 80.3 611.896 78.1C612.962 75.9 613.962 74.0333 614.896 72.5C615.962 70.9 617.396 69.2333 619.196 67.5C620.996 65.7667 622.962 64.3 625.096 63.1C627.229 61.9 629.296 61.3 631.296 61.3C633.029 61.3 634.229 61.7333 634.896 62.6C635.562 63.4 635.896 64.3667 635.896 65.5C635.896 67.5667 635.262 69.2667 633.996 70.6C632.796 71.9333 631.296 73.0333 629.496 73.9C627.696 74.7 625.962 75.3667 624.296 75.9C623.296 76.1667 622.129 76.4333 620.796 76.7C619.462 76.9667 618.196 77.1 616.996 77.1C616.529 78.3 616.162 79.4667 615.896 80.6C615.629 81.7333 615.496 82.7667 615.496 83.7C615.496 84.8333 615.762 85.7667 616.296 86.5C616.896 87.2333 617.862 87.6 619.196 87.6C619.729 87.6 620.362 87.5333 621.096 87.4C621.829 87.2667 622.629 87.0667 623.496 86.8C625.496 86.1333 627.462 85.0667 629.396 83.6C631.329 82.1333 633.096 80.5667 634.696 78.9C636.362 77.1667 637.629 75.7333 638.496 74.6C638.696 74.8 638.796 75.0333 638.796 75.3C638.796 75.6333 638.562 76.1667 638.096 76.9C636.762 78.7667 635.029 80.7 632.896 82.7C630.762 84.7 628.396 86.4 625.796 87.8C623.196 89.1333 620.496 89.8 617.696 89.8ZM617.796 75.1C618.662 75.1667 619.629 75.1667 620.696 75.1C621.829 74.9667 622.929 74.7333 623.996 74.4C626.729 73.6 628.696 72.3333 629.896 70.6C631.162 68.8 631.796 67.2 631.796 65.8C631.796 65 631.629 64.3333 631.296 63.8C630.962 63.2667 630.429 63 629.696 63C627.762 63 626.029 63.7333 624.496 65.2C622.962 66.6 621.629 68.2333 620.496 70.1C619.362 71.9667 618.462 73.6333 617.796 75.1ZM641.098 89.8C638.631 89.8 636.898 89.3333 635.898 88.4C634.898 87.4667 634.398 86.2667 634.398 84.8C634.398 82.8667 635.031 80.7333 636.298 78.4C637.565 76 638.765 74 639.898 72.4C641.031 70.8667 642.298 69.4333 643.698 68.1C645.165 66.7 646.731 65.5 648.398 64.5C649.465 63.8333 650.898 63.1333 652.698 62.4C654.565 61.6 656.131 61.2 657.398 61.2C658.931 61.2 659.998 61.5667 660.598 62.3C661.198 62.9667 661.498 63.8 661.498 64.8C661.498 65.6 661.365 66.4333 661.098 67.3C660.831 68.1 660.531 68.8667 660.198 69.6C659.998 70 659.698 70.3 659.298 70.5C658.898 70.6333 658.698 70.5667 658.698 70.3C658.698 69.9667 658.731 69.6667 658.798 69.4C658.865 69.1333 658.898 68.8333 658.898 68.5C658.898 67.2333 658.598 66 657.998 64.8C657.465 63.5333 656.631 62.9 655.498 62.9C654.298 62.9 652.998 63.3333 651.598 64.2C650.198 65 649.231 65.7 648.698 66.3C646.965 68.1 645.265 70.3333 643.598 73C641.998 75.6667 640.831 78.2 640.098 80.6C639.631 82 639.398 83.2 639.398 84.2C639.398 85.3333 639.698 86.1333 640.298 86.6C640.898 87.0667 641.631 87.3 642.498 87.3C643.165 87.3 643.865 87.2 644.598 87C645.398 86.8 646.231 86.5667 647.098 86.3C649.098 85.6333 651.098 84.6 653.098 83.2C655.165 81.7333 657.031 80.2 658.698 78.6C660.365 76.9333 661.631 75.5 662.498 74.3C662.631 74.4333 662.698 74.6333 662.698 74.9C662.698 75.2333 662.565 75.6333 662.298 76.1C662.031 76.5 661.831 76.8333 661.698 77.1C660.298 78.9667 658.465 80.9 656.198 82.9C653.931 84.8333 651.465 86.4667 648.798 87.8C646.198 89.1333 643.631 89.8 641.098 89.8ZM650.426 124C647.893 124 645.46 123.4 643.126 122.2C640.726 121.067 638.96 119.3 637.826 116.9C637.426 116.033 637.16 115.1 637.026 114.1C636.893 113.167 636.826 112.233 636.826 111.3V110.2C636.826 109.667 636.893 109.167 637.026 108.7C637.16 108.3 637.493 108.1 638.026 108.1C638.16 108.1 638.226 108.167 638.226 108.3C638.226 108.7 638.193 109.1 638.126 109.5C638.06 109.9 638.026 110.333 638.026 110.8C638.026 113.867 639.026 116.2 641.026 117.8C642.96 119.4 645.393 120.2 648.326 120.2C649.526 120.2 650.76 120.067 652.026 119.8C653.293 119.533 654.493 119.167 655.626 118.7C659.826 116.9 663.46 114.333 666.526 111C669.66 107.733 672.393 104.033 674.726 99.9C677.06 95.7667 679.16 91.5667 681.026 87.3C682.093 84.7667 683.026 82.3 683.826 79.9C684.693 77.5 685.46 75.3333 686.126 73.4C685.46 74.3333 684.593 75.4667 683.526 76.8C682.46 78.1333 681.393 79.4333 680.326 80.7C679.26 81.9 678.326 82.8667 677.526 83.6C675.86 85.2 674.06 86.5667 672.126 87.7C670.26 88.7667 668.326 89.3 666.326 89.3C665.66 89.3 665.093 89.1667 664.626 88.9C664.16 88.6333 663.926 88.1333 663.926 87.4C663.926 86.4667 664.16 85.3667 664.626 84.1C665.16 82.8333 665.726 81.5667 666.326 80.3C666.926 79.0333 667.426 78 667.826 77.2C668.626 75.6667 669.393 74.1333 670.126 72.6C670.86 71.0667 671.493 69.7667 672.026 68.7C672.56 67.7 672.826 67.0333 672.826 66.7C672.826 66.1667 672.426 66.1667 671.626 66.7C670.893 67.2333 670.193 67.7667 669.526 68.3C668.06 69.7 666.526 71.3667 664.926 73.3C663.326 75.1667 662.093 76.6667 661.226 77.8C661.026 78.0667 660.86 78.2 660.726 78.2C660.593 78.2 660.526 78.0333 660.526 77.7C660.526 77.1667 660.693 76.6667 661.026 76.2C661.96 74.8667 663.06 73.4 664.326 71.8C665.593 70.2 666.893 68.6667 668.226 67.2C669.493 65.8667 670.793 64.5667 672.126 63.3C673.46 62.0333 675.16 61.4 677.226 61.4C678.626 61.4 679.326 61.9333 679.326 63C679.326 63.9333 678.926 65 678.126 66.2C677.66 66.9333 676.926 68.1667 675.926 69.9C674.926 71.6333 673.893 73.5333 672.826 75.6C671.826 77.6 670.96 79.4667 670.226 81.2C669.493 82.9333 669.126 84.2 669.126 85C669.126 85.9333 669.593 86.4 670.526 86.4C671.26 86.4 672.16 86.0333 673.226 85.3C674.293 84.5 675.393 83.5667 676.526 82.5C678.46 80.6333 680.226 78.5667 681.826 76.3C683.493 74.0333 684.926 71.8667 686.126 69.8C686.326 69.4667 686.66 68.8667 687.126 68C687.66 67.1333 688.193 66.3 688.726 65.5C689.326 64.7 689.793 64.2333 690.126 64.1C690.46 63.9667 691.126 63.6 692.126 63C693.126 62.4 694.126 62 695.126 61.8C696.06 61.6 696.76 61.5 697.226 61.5C697.96 61.5 698.326 61.7 698.326 62.1C698.326 62.6333 698.026 62.9 697.426 62.9C696.693 62.9 696.026 63.1 695.426 63.5C694.826 63.8333 694.36 64.2667 694.026 64.8C693.426 65.6667 692.56 67.2333 691.426 69.5C690.36 71.7667 689.16 74.4 687.826 77.4C686.56 80.3333 685.293 83.3333 684.026 86.4C682.76 89.4 681.593 92.1667 680.526 94.7C678.926 98.5 677.093 102.2 675.026 105.8C672.96 109.467 670.526 112.733 667.726 115.6C664.993 118.533 661.726 120.833 657.926 122.5C655.66 123.5 653.16 124 650.426 124ZM699.301 89.8C696.835 89.8 695.101 89.3333 694.101 88.4C693.101 87.4667 692.601 86.2667 692.601 84.8C692.601 82.8667 693.235 80.7333 694.501 78.4C695.768 76 696.968 74 698.101 72.4C699.235 70.8667 700.501 69.4333 701.901 68.1C703.368 66.7 704.935 65.5 706.601 64.5C707.668 63.8333 709.101 63.1333 710.901 62.4C712.768 61.6 714.335 61.2 715.601 61.2C717.135 61.2 718.201 61.5667 718.801 62.3C719.401 62.9667 719.701 63.8 719.701 64.8C719.701 65.6 719.568 66.4333 719.301 67.3C719.035 68.1 718.735 68.8667 718.401 69.6C718.201 70 717.901 70.3 717.501 70.5C717.101 70.6333 716.901 70.5667 716.901 70.3C716.901 69.9667 716.935 69.6667 717.001 69.4C717.068 69.1333 717.101 68.8333 717.101 68.5C717.101 67.2333 716.801 66 716.201 64.8C715.668 63.5333 714.835 62.9 713.701 62.9C712.501 62.9 711.201 63.3333 709.801 64.2C708.401 65 707.435 65.7 706.901 66.3C705.168 68.1 703.468 70.3333 701.801 73C700.201 75.6667 699.035 78.2 698.301 80.6C697.835 82 697.601 83.2 697.601 84.2C697.601 85.3333 697.901 86.1333 698.501 86.6C699.101 87.0667 699.835 87.3 700.701 87.3C701.368 87.3 702.068 87.2 702.801 87C703.601 86.8 704.435 86.5667 705.301 86.3C707.301 85.6333 709.301 84.6 711.301 83.2C713.368 81.7333 715.235 80.2 716.901 78.6C718.568 76.9333 719.835 75.5 720.701 74.3C720.835 74.4333 720.901 74.6333 720.901 74.9C720.901 75.2333 720.768 75.6333 720.501 76.1C720.235 76.5 720.035 76.8333 719.901 77.1C718.501 78.9667 716.668 80.9 714.401 82.9C712.135 84.8333 709.668 86.4667 707.001 87.8C704.401 89.1333 701.835 89.8 699.301 89.8ZM725.529 89.2C723.529 89.2 722.163 88.7333 721.429 87.8C720.696 86.8 720.329 85.6 720.329 84.2C720.329 82.3333 720.729 80.3333 721.529 78.2C722.396 76.0667 723.096 74.4 723.629 73.2C722.763 74.1333 721.929 75.0333 721.129 75.9C720.329 76.7667 719.763 77.4 719.429 77.8C719.229 78.0667 719.063 78.2 718.929 78.2C718.796 78.2 718.729 78.0333 718.729 77.7C718.729 77.1667 718.896 76.6667 719.229 76.2C720.163 75 721.229 73.7333 722.429 72.4C723.629 71.0667 724.796 69.6667 725.929 68.2C727.263 65.7333 728.729 62.8667 730.329 59.6C731.996 56.2667 733.696 52.8667 735.429 49.4C737.229 45.8667 738.963 42.6333 740.629 39.7C742.363 36.7 743.896 34.3 745.229 32.5C746.363 32.0333 747.429 31.4333 748.429 30.7C749.496 29.9667 750.529 29.3 751.529 28.7C752.596 28.0333 753.696 27.7 754.829 27.7C755.563 27.7 756.096 27.9 756.429 28.3C756.829 28.7 757.096 29.1667 757.229 29.7C757.296 29.9 757.329 30.2667 757.329 30.8C757.329 32.3333 756.796 34.2 755.729 36.4C754.729 38.6 753.529 40.7667 752.129 42.9C750.796 44.9667 749.629 46.6667 748.629 48C745.963 51.7333 743.229 55.1333 740.429 58.2C737.629 61.2 735.096 63.7333 732.829 65.8C730.629 67.8 729.029 69.2667 728.029 70.2C727.563 71.0667 726.996 72.2333 726.329 73.7C725.729 75.1 725.196 76.6 724.729 78.2C724.263 79.7333 724.029 81.1667 724.029 82.5C724.029 83.6333 724.296 84.6 724.829 85.4C725.363 86.1333 726.263 86.5 727.529 86.5C727.729 86.5 727.929 86.5 728.129 86.5C728.329 86.5 728.563 86.4667 728.829 86.4C729.963 86.2 731.196 85.5667 732.529 84.5C733.863 83.4333 735.196 82.2 736.529 80.8C737.863 79.4 739.063 78.0667 740.129 76.8C740.596 76.2667 741.029 75.7667 741.429 75.3C741.829 74.7667 742.096 74.4 742.229 74.2C742.696 74.6667 742.663 75.2667 742.129 76C741.663 76.6667 741.263 77.2333 740.929 77.7C740.463 78.3 739.796 79.1333 738.929 80.2C738.063 81.2 737.063 82.3 735.929 83.5C734.663 84.7667 733.096 86.0333 731.229 87.3C729.363 88.5667 727.463 89.2 725.529 89.2ZM729.729 66.2C731.796 64.4667 734.396 62 737.529 58.8C740.729 55.5333 743.863 51.6 746.929 47C747.263 46.4667 747.796 45.5667 748.529 44.3C749.329 43.0333 750.129 41.6 750.929 40C751.796 38.3333 752.529 36.7333 753.129 35.2C753.729 33.6 754.029 32.2333 754.029 31.1C754.029 30.0333 753.729 29.5 753.129 29.5C752.396 29.5 751.429 30.1333 750.229 31.4C748.829 32.8667 747.229 35.0333 745.429 37.9C743.696 40.7 741.863 43.8333 739.929 47.3C737.996 50.7667 736.129 54.1667 734.329 57.5C732.596 60.8333 731.063 63.7333 729.729 66.2ZM746.016 89.8C743.283 89.8 741.383 89.2667 740.316 88.2C739.249 87.1333 738.716 85.8333 738.716 84.3C738.716 82.3667 739.216 80.3 740.216 78.1C741.283 75.9 742.283 74.0333 743.216 72.5C744.283 70.9 745.716 69.2333 747.516 67.5C749.316 65.7667 751.283 64.3 753.416 63.1C755.549 61.9 757.616 61.3 759.616 61.3C761.349 61.3 762.549 61.7333 763.216 62.6C763.883 63.4 764.216 64.3667 764.216 65.5C764.216 67.5667 763.583 69.2667 762.316 70.6C761.116 71.9333 759.616 73.0333 757.816 73.9C756.016 74.7 754.283 75.3667 752.616 75.9C751.616 76.1667 750.449 76.4333 749.116 76.7C747.783 76.9667 746.516 77.1 745.316 77.1C744.849 78.3 744.483 79.4667 744.216 80.6C743.949 81.7333 743.816 82.7667 743.816 83.7C743.816 84.8333 744.083 85.7667 744.616 86.5C745.216 87.2333 746.183 87.6 747.516 87.6C748.049 87.6 748.683 87.5333 749.416 87.4C750.149 87.2667 750.949 87.0667 751.816 86.8C753.816 86.1333 755.783 85.0667 757.716 83.6C759.649 82.1333 761.416 80.5667 763.016 78.9C764.683 77.1667 765.949 75.7333 766.816 74.6C767.016 74.8 767.116 75.0333 767.116 75.3C767.116 75.6333 766.883 76.1667 766.416 76.9C765.083 78.7667 763.349 80.7 761.216 82.7C759.083 84.7 756.716 86.4 754.116 87.8C751.516 89.1333 748.816 89.8 746.016 89.8ZM746.116 75.1C746.983 75.1667 747.949 75.1667 749.016 75.1C750.149 74.9667 751.249 74.7333 752.316 74.4C755.049 73.6 757.016 72.3333 758.216 70.6C759.483 68.8 760.116 67.2 760.116 65.8C760.116 65 759.949 64.3333 759.616 63.8C759.283 63.2667 758.749 63 758.016 63C756.083 63 754.349 63.7333 752.816 65.2C751.283 66.6 749.949 68.2333 748.816 70.1C747.683 71.9667 746.783 73.6333 746.116 75.1ZM807.513 43.2C807.113 43.4667 806.746 43.6667 806.413 43.8C806.146 43.9333 806.013 44 806.013 44L806.213 43.2C806.28 43 806.313 42.8333 806.313 42.7C806.38 42.5667 806.613 42.3667 807.013 42.1C808.146 41.1667 809.113 40.0667 809.913 38.8C810.78 37.5333 811.346 36.2 811.613 34.8C811.813 33.9333 811.646 33.1667 811.113 32.5C810.646 31.8333 809.98 31.4333 809.113 31.3L809.513 30.2C809.846 30.0667 810.313 29.8667 810.913 29.6C811.513 29.2667 811.946 29 812.213 28.8C812.546 28.6 812.846 28.3667 813.113 28.1C813.38 27.7667 813.58 27.6333 813.713 27.7C815.113 27.9 815.813 28.7667 815.813 30.3C815.813 30.5667 815.78 30.8333 815.713 31.1C815.713 31.3 815.68 31.5667 815.613 31.9C815.146 34.3 814.146 36.4667 812.613 38.4C811.08 40.2667 809.38 41.8667 807.513 43.2ZM797.213 43.2C796.813 43.4667 796.446 43.6667 796.113 43.8C795.846 43.9333 795.713 44 795.713 44L795.913 43.2C795.98 43 796.013 42.8333 796.013 42.7C796.08 42.5667 796.313 42.3667 796.713 42.1C797.846 41.1667 798.813 40.0667 799.613 38.8C800.48 37.5333 801.046 36.2 801.313 34.8C801.446 33.9333 801.28 33.1667 800.813 32.5C800.346 31.8333 799.68 31.4333 798.813 31.3L799.213 30.2C799.546 30.0667 800.013 29.8667 800.613 29.6C801.213 29.2667 801.646 29 801.913 28.8C802.18 28.6 802.446 28.3667 802.713 28.1C802.98 27.7667 803.213 27.6333 803.413 27.7C804.813 27.9 805.513 28.7667 805.513 30.3C805.513 30.5667 805.48 30.8333 805.413 31.1C805.413 31.3 805.38 31.5667 805.313 31.9C804.78 34.3 803.746 36.4667 802.213 38.4C800.746 40.2667 799.08 41.8667 797.213 43.2Z" fill="white"/>
</g>
<defs>
<filter id="filter0_d_896_63" x="29.0898" y="24.5996" width="788.723" height="104.4" filterUnits="userSpaceOnUse" color-interpolation-filters="sRGB">
<feFlood flood-opacity="0" result="BackgroundImageFix"/>
<feColorMatrix in="SourceAlpha" type="matrix" values="0 0 0 0 0 0 0 0 0 0 0 0 0 0 0 0 0 0 127 0" result="hardAlpha"/>
<feOffset dy="4"/>
<feGaussianBlur stdDeviation="2"/>
<feComposite in2="hardAlpha" operator="out"/>
<feColorMatrix type="matrix" values="0 0 0 0 0 0 0 0 0 0 0 0 0 0 0 0 0 0 0.25 0"/>
<feBlend mode="normal" in2="BackgroundImageFix" result="effect1_dropShadow_896_63"/>
<feBlend mode="normal" in="SourceGraphic" in2="effect1_dropShadow_896_63" result="shape"/>
</filter>
<filter id="filter1_f_896_63" x="31.0898" y="23.5996" width="788.723" height="104.4" filterUnits="userSpaceOnUse" color-interpolation-filters="sRGB">
<feFlood flood-opacity="0" result="BackgroundImageFix"/>
<feBlend mode="normal" in="SourceGraphic" in2="BackgroundImageFix" result="shape"/>
<feGaussianBlur stdDeviation="2" result="effect1_foregroundBlur_896_63"/>
</filter>
</defs>
</svg>
